<svg width="12" height="12" viewBox="0 0 12 12" fill="none" xmlns="http://www.w3.org/2000/svg">
<path fill-rule="evenodd" clip-rule="evenodd" d="M9.34634 12C9.25127 11.9999 9.15764 11.9757 9.07355 11.9292L5.99995 10.239L2.92635 11.9292C2.8296 11.9821 2.72066 12.0056 2.61181 11.9972C2.50295 11.9888 2.39851 11.9487 2.31025 11.8816C2.22198 11.8144 2.15339 11.7228 2.11222 11.617C2.07104 11.5113 2.0589 11.3956 2.07717 11.283L2.66333 7.7028L0.176649 5.1674C0.0984148 5.08749 0.0431081 4.98627 0.01698 4.87519C-0.0091481 4.76411 -0.00505575 4.6476 0.0287945 4.53883C0.0626448 4.43006 0.124903 4.33336 0.208533 4.25967C0.292164 4.18597 0.393831 4.13822 0.502045 4.1218L3.93786 3.599L5.47466 0.341898C5.52306 0.239273 5.59794 0.152864 5.69084 0.0924425C5.78373 0.0320214 5.89094 0 6.00033 0C6.10971 0 6.21692 0.0320214 6.30982 0.0924425C6.40271 0.152864 6.4776 0.239273 6.52599 0.341898L8.06279 3.599L11.4986 4.1218C11.6068 4.13834 11.7083 4.18618 11.7919 4.25992C11.8754 4.33367 11.9376 4.43038 11.9713 4.53913C12.0051 4.64788 12.0091 4.76434 11.983 4.87536C11.9568 4.98638 11.9015 5.08754 11.8233 5.1674L9.33732 7.7028L9.92348 11.283C9.93792 11.371 9.93383 11.4612 9.91149 11.5473C9.88915 11.6335 9.8491 11.7135 9.79414 11.7818C9.73918 11.8501 9.67063 11.905 9.59329 11.9427C9.51594 11.9803 9.43166 11.9999 9.34634 12Z" fill="#8B90A0"/>
</svg>
