<svg width="42" height="42" viewBox="0 0 42 42" fill="none" xmlns="http://www.w3.org/2000/svg">
<path d="M28.7368 -4.04021e-07L13.2632 -1.86471e-07C5.93812 -8.34859e-08 -7.53272e-08 5.93812 -1.68248e-07 13.2632L-3.64538e-07 28.7368C-4.57459e-07 36.0619 5.93812 42 13.2632 42L28.7368 42C36.0619 42 42 36.0619 42 28.7368L42 13.2632C42 5.93812 36.0619 -5.07006e-07 28.7368 -4.04021e-07Z" fill="white" fill-opacity="0.2"/>
<path d="M13.7266 25.7794V28.3127C13.7266 28.546 13.9099 28.7294 14.1432 28.7294H16.6766C16.7849 28.7294 16.8932 28.6877 16.9682 28.6044L26.0682 19.5127L22.9432 16.3877L13.8516 25.4794C13.7682 25.5627 13.7266 25.6627 13.7266 25.7794ZM28.4849 17.096C28.8099 16.771 28.8099 16.246 28.4849 15.921L26.5349 13.971C26.2099 13.646 25.6849 13.646 25.3599 13.971L23.8349 15.496L26.9599 18.621L28.4849 17.096Z" fill="white"/>
</svg>
