<svg width="18" height="18" viewBox="0 0 18 18" fill="none" xmlns="http://www.w3.org/2000/svg">
<path d="M5.73828 1.7699L6.02828 4.3099C6.09828 4.9199 5.88828 5.5199 5.45828 5.9499L3.61828 7.7899C5.05828 10.6199 7.36828 12.9399 10.2083 14.3799L12.0583 12.5299C12.4883 12.0999 13.0883 11.8899 13.6983 11.9599L16.2183 12.2499C17.2283 12.3699 17.9883 13.2199 17.9883 14.2399L17.9883 15.9699C17.9883 17.0999 17.0483 18.0399 15.9183 17.9699C7.37828 17.4399 0.558283 10.6099 0.0282824 2.0799C-0.0417173 0.949898 0.898283 0.00989894 2.02828 0.00989895L3.75828 0.00989897C4.76828 -0.000101247 5.61828 0.759899 5.73828 1.7699Z" fill="#AEB1BD"/>
</svg>
