<svg width="22" height="16" viewBox="0 0 22 16" fill="none" xmlns="http://www.w3.org/2000/svg">
<path d="M19 3.99994H16V-6.10352e-05H2C0.9 -6.10352e-05 0 0.899939 0 1.99994V12.9999H2C2 14.6599 3.34 15.9999 5 15.9999C6.66 15.9999 8 14.6599 8 12.9999H14C14 14.6599 15.34 15.9999 17 15.9999C18.66 15.9999 20 14.6599 20 12.9999H22V7.99994L19 3.99994ZM5 14.4999C4.17 14.4999 3.5 13.8299 3.5 12.9999C3.5 12.1699 4.17 11.4999 5 11.4999C5.83 11.4999 6.5 12.1699 6.5 12.9999C6.5 13.8299 5.83 14.4999 5 14.4999ZM18.5 5.49994L20.46 7.99994H16V5.49994H18.5ZM17 14.4999C16.17 14.4999 15.5 13.8299 15.5 12.9999C15.5 12.1699 16.17 11.4999 17 11.4999C17.83 11.4999 18.5 12.1699 18.5 12.9999C18.5 13.8299 17.83 14.4999 17 14.4999Z" fill="#AEB1BD"/>
</svg>
