<svg width="105" height="105" viewBox="0 0 105 105" fill="none" xmlns="http://www.w3.org/2000/svg">
<path d="M52.5 105C81.4949 105 105 81.4949 105 52.5C105 23.505 81.4949 0 52.5 0C23.505 0 0 23.505 0 52.5C0 81.4949 23.505 105 52.5 105Z" fill="#48267F" fill-opacity="0.89"/>
<path opacity="0.3" d="M52.5 88.5556C76.9539 88.5556 96.7778 68.7318 96.7778 44.2778C96.7778 19.8238 76.9539 0 52.5 0C28.046 0 8.22217 19.8238 8.22217 44.2778C8.22217 68.7318 28.046 88.5556 52.5 88.5556Z" fill="white"/>
<path d="M43.8621 63.5229C61.4034 63.5229 75.6235 49.3029 75.6235 31.7615C75.6235 14.2201 61.4034 0 43.8621 0C26.3207 0 12.1006 14.2201 12.1006 31.7615C12.1006 49.3029 26.3207 63.5229 43.8621 63.5229Z" fill="#F44343"/>
<path d="M43.8623 58.8086C28.9484 58.8086 16.8152 46.6754 16.8152 31.7615C16.815 16.8476 28.9482 4.71436 43.8623 4.71436C58.7762 4.71436 70.9095 16.8476 70.9095 31.7615C70.9093 46.6754 58.776 58.8086 43.8623 58.8086Z" fill="#FF6969"/>
<path d="M82.8388 72.5294V92.3016C82.8388 93.3924 82.7594 94.4658 82.6009 95.518C74.0786 101.494 63.7009 105 52.5001 105C41.3615 105 31.0352 101.533 22.5386 95.6164C22.2878 93.8657 22.1594 92.0936 22.1594 90.3086V68.5285C22.1594 66.8784 22.828 65.3848 23.9102 64.3029C24.1823 64.0307 24.4801 63.7842 24.7994 63.5699C25.7508 62.9292 26.8994 62.5542 28.1338 62.5542C31.4337 62.5542 34.1081 65.2284 34.1081 68.5285V63.5229C34.1081 61.8729 34.7767 60.3816 35.8588 59.2994C36.941 58.2172 38.4346 57.5486 40.0845 57.5486C43.3823 57.5486 46.0588 60.2251 46.0588 63.5229V61.4914C46.0588 59.8414 46.7274 58.3478 47.8073 57.2658C48.8895 56.1859 50.3831 55.5173 52.0329 55.5173C55.3329 55.5173 58.0073 58.1915 58.0073 61.4916V35.715C58.0073 34.0649 58.6758 32.5713 59.7558 31.4914C60.0279 31.2192 60.3257 30.9727 60.6472 30.7564C61.6394 30.0878 62.8436 29.7084 64.1379 29.7429C67.3972 29.8266 69.9557 32.5885 69.9557 35.8501V77.8801C69.9557 74.6679 71.1321 71.7322 73.0758 69.4757C73.2858 69.2315 73.5022 68.9979 73.7294 68.7707L73.8001 68.6999C77.1536 65.3978 82.8388 67.8214 82.8388 72.5294Z" fill="#F9D5A9"/>
<path d="M60.6477 30.7562V73.8813C60.6477 74.6103 60.0567 75.2014 59.3277 75.2014C58.5986 75.2014 58.0076 74.6103 58.0076 73.8813V35.7148C58.0076 34.0647 58.6761 32.5712 59.7561 31.4912C60.0284 31.2191 60.3264 30.9728 60.6477 30.7562Z" fill="#E5A379"/>
<path d="M48.6993 56.5327V76.307C48.6993 77.036 48.1082 77.627 47.3792 77.627C46.6501 77.627 46.0591 77.036 46.0591 76.307V61.4913C46.0591 59.8412 46.7276 58.3477 47.8076 57.2677C48.0799 56.9956 48.3777 56.7491 48.6993 56.5327Z" fill="#E5A379"/>
<path d="M36.7486 58.5642V77.8071C36.7486 78.5362 36.1575 79.1272 35.4285 79.1272C34.6994 79.1272 34.1084 78.5362 34.1084 77.8071V63.5228C34.1084 61.8727 34.777 60.3791 35.8569 59.2992C36.1292 59.0271 36.427 58.7806 36.7486 58.5642Z" fill="#E5A379"/>
<path d="M24.7994 63.5699V97.1058C24.0322 96.6279 23.2779 96.1308 22.5386 95.6165C22.2878 93.8657 22.1594 92.0936 22.1594 90.3086V68.5285C22.1594 66.8785 22.828 65.3849 23.9102 64.3029C24.1823 64.0308 24.4801 63.7843 24.7994 63.5699Z" fill="#E5A379"/>
<path d="M73.0761 69.4756V90.6384C73.0761 91.5002 72.3778 92.1984 71.5161 92.1984C70.6544 92.1984 69.9561 91.5002 69.9561 90.6384V77.8799C69.9561 74.6678 71.1326 71.7321 73.0761 69.4756Z" fill="#E5A379"/>
<path d="M55.4391 38.0855L49.1151 31.7613L55.4391 25.4373C56.0467 24.8297 56.0467 23.8441 55.4391 23.2364L52.3871 20.1845C51.7794 19.5768 50.7938 19.5768 50.1862 20.1845L43.8622 26.5084L37.538 20.1843C36.9303 19.5766 35.9447 19.5766 35.3371 20.1843L32.2853 23.236C31.6777 23.8437 31.6777 24.8293 32.2853 25.4369L38.6095 31.7611L32.2855 38.0851C31.6779 38.6928 31.6779 39.6784 32.2855 40.286L35.3373 43.3378C35.9449 43.9454 36.9306 43.9454 37.5382 43.3378L43.8622 37.0138L50.1864 43.338C50.794 43.9456 51.7796 43.9456 52.3873 43.338L55.4391 40.2862C56.0467 39.679 56.0467 38.6934 55.4391 38.0855Z" fill="white"/>
</svg>
