<svg width="42" height="42" viewBox="0 0 42 42" fill="none" xmlns="http://www.w3.org/2000/svg">
<path d="M28.7368 -4.04021e-07L13.2632 -1.86471e-07C5.93812 -8.34859e-08 -7.53272e-08 5.93812 -1.68248e-07 13.2632L-3.64538e-07 28.7368C-4.57459e-07 36.0619 5.93812 42 13.2632 42L28.7368 42C36.0619 42 42 36.0619 42 28.7368L42 13.2632C42 5.93812 36.0619 -5.07006e-07 28.7368 -4.04021e-07Z" fill="white" fill-opacity="0.2"/>
<path d="M25 23.7199C24.4933 23.7199 24.04 23.9199 23.6933 24.2333L18.94 21.4666C18.9733 21.3133 19 21.1599 19 20.9999C19 20.8399 18.9733 20.6866 18.94 20.5333L23.64 17.7933C24 18.1266 24.4733 18.3333 25 18.3333C26.1067 18.3333 27 17.4399 27 16.3333C27 15.2266 26.1067 14.3333 25 14.3333C23.8933 14.3333 23 15.2266 23 16.3333C23 16.4933 23.0267 16.6466 23.06 16.7999L18.36 19.5399C18 19.2066 17.5267 18.9999 17 18.9999C15.8933 18.9999 15 19.8933 15 20.9999C15 22.1066 15.8933 22.9999 17 22.9999C17.5267 22.9999 18 22.7933 18.36 22.4599L23.1067 25.2333C23.0733 25.3733 23.0533 25.5199 23.0533 25.6666C23.0533 26.7399 23.9267 27.6133 25 27.6133C26.0733 27.6133 26.9467 26.7399 26.9467 25.6666C26.9467 24.5933 26.0733 23.7199 25 23.7199Z" fill="white"/>
</svg>
