<svg width="375" height="348" viewBox="0 0 375 348" fill="none" xmlns="http://www.w3.org/2000/svg">
<g filter="url(#filter0_d_318_3302)">
<path fill-rule="evenodd" clip-rule="evenodd" d="M374.999 227C374.999 227 374.999 227.001 374.999 227.001L374.999 230.834L374.999 294.329C374.999 304.422 374.999 309.469 371.913 312.893C368.827 316.317 363.896 316.831 354.036 317.857C292.629 324.25 200.341 329.31 188.716 329.935C188.12 329.967 187.821 329.983 187.499 329.983C187.177 329.983 186.878 329.967 186.282 329.935L186.282 329.935C174.657 329.31 82.3694 324.25 20.9617 317.857C11.1015 316.83 6.17142 316.317 3.08521 312.893C-0.00100537 309.469 -0.00100495 304.422 -0.00100411 294.328L-0.000998506 227C-0.000998445 226.262 -0.000998385 225.548 -2.17651e-05 224.857L-1.71205e-06 -16L375 -16L375 227L374.999 227Z" fill="white"/>
<path fill-rule="evenodd" clip-rule="evenodd" d="M374.999 227C374.999 227 374.999 227.001 374.999 227.001L374.999 230.834L374.999 294.329C374.999 304.422 374.999 309.469 371.913 312.893C368.827 316.317 363.896 316.831 354.036 317.857C292.629 324.25 200.341 329.31 188.716 329.935C188.12 329.967 187.821 329.983 187.499 329.983C187.177 329.983 186.878 329.967 186.282 329.935L186.282 329.935C174.657 329.31 82.3694 324.25 20.9617 317.857C11.1015 316.83 6.17142 316.317 3.08521 312.893C-0.00100537 309.469 -0.00100495 304.422 -0.00100411 294.328L-0.000998506 227C-0.000998445 226.262 -0.000998385 225.548 -2.17651e-05 224.857L-1.71205e-06 -16L375 -16L375 227L374.999 227Z" fill="url(#paint0_linear_318_3302)"/>
</g>
<mask id="mask0_318_3302" style="mask-type:alpha" maskUnits="userSpaceOnUse" x="0" y="82" width="375" height="248">
<path d="M374.999 226.997C374.999 226.997 374.999 226.998 374.999 226.998V294.351C374.999 304.441 374.999 309.486 371.905 312.91C368.812 316.334 363.871 316.848 353.989 317.877C292.596 324.267 200.383 329.325 188.725 329.952C188.124 329.984 187.823 330 187.499 330C187.175 330 186.875 329.984 186.273 329.952C174.616 329.325 82.4026 324.267 21.0101 317.877C11.1279 316.848 6.18685 316.334 3.09341 312.91C-1.19528e-06 309.486 -8.41451e-07 304.441 8.78638e-10 294.351L5.62367e-06 226.997C5.69114e-06 226.189 5.75612e-06 225.41 0.00129098 224.658L0.00130289 82L375 82L375 226.997H374.999Z" fill="url(#paint1_linear_318_3302)"/>
</mask>
<g mask="url(#mask0_318_3302)">
<g style="mix-blend-mode:multiply">
<path fill-rule="evenodd" clip-rule="evenodd" d="M2.90547 214.32L29.4211 207.216L28.6584 159.522L19.1679 162.064L19.7735 199.935L7.68656 203.173L-17.1926 157.485L-26.6622 160.023L2.90547 214.32ZM68.5302 196.736L95.0458 189.632L94.2832 141.938L84.7927 144.481L85.3982 182.351L73.3113 185.589L48.4321 139.902L38.9625 142.439L68.5302 196.736ZM134.154 179.153L160.67 172.048L159.907 124.354L150.417 126.897L151.022 164.767L138.935 168.006L114.056 122.318L104.586 124.855L134.154 179.153ZM199.779 161.569L226.294 154.464L225.532 106.77L216.041 109.313L216.647 147.183L204.56 150.422L179.681 104.734L170.211 107.271L199.779 161.569ZM265.403 143.985L291.918 136.88L291.155 89.1863L281.665 91.7293L282.271 129.599L270.184 132.838L245.304 87.1502L235.835 89.6876L265.403 143.985ZM331.027 126.401L357.543 119.297L356.78 71.6025L347.29 74.1454L347.895 112.015L335.808 115.254L310.929 69.5664L301.459 72.1038L331.027 126.401ZM361.456 57.619L334.94 64.7239L335.703 112.418L345.193 109.875L344.588 72.0049L356.674 68.7663L381.554 114.454L391.023 111.917L361.456 57.619ZM269.315 82.3077L295.831 75.2029L325.399 129.5L315.929 132.038L291.05 86.3501L278.963 89.5888L279.568 127.459L270.078 130.002L269.315 82.3077ZM203.691 99.8915L230.207 92.7866L259.775 147.084L250.305 149.622L225.426 103.934L213.339 107.173L213.945 145.043L204.454 147.586L203.691 99.8915ZM138.067 117.475L164.582 110.37L194.15 164.668L184.681 167.205L159.801 121.518L147.714 124.756L148.32 162.626L138.829 165.169L138.067 117.475ZM72.443 135.059L98.9586 127.954L128.526 182.252L119.057 184.789L94.1775 139.101L82.0906 142.34L82.6961 180.21L73.2056 182.753L72.443 135.059ZM6.81822 152.643L33.3338 145.538L62.9015 199.836L53.4319 202.373L28.5527 156.685L16.4658 159.924L17.0714 197.794L7.58089 200.337L6.81822 152.643ZM369.75 194.636L396.266 187.531L425.833 241.829L416.364 244.366L391.484 198.678L379.398 201.917L380.003 239.787L370.513 242.33L369.75 194.636ZM365.837 256.314L392.353 249.209L391.59 201.515L382.1 204.058L382.705 241.928L370.619 245.167L345.739 199.479L336.27 202.017L365.837 256.314ZM304.125 212.221L330.641 205.116L360.208 259.413L350.739 261.951L325.86 216.263L313.773 219.502L314.378 257.372L304.888 259.915L304.125 212.221ZM300.212 273.898L326.728 266.793L325.965 219.099L316.475 221.642L317.08 259.512L304.993 262.751L280.114 217.063L270.645 219.6L300.212 273.898ZM238.501 229.803L265.017 222.699L294.585 276.996L285.115 279.533L260.236 233.846L248.149 237.084L248.755 274.954L239.264 277.497L238.501 229.803ZM234.589 291.482L261.105 284.377L260.342 236.683L250.851 239.226L251.457 277.096L239.37 280.335L214.491 234.647L205.021 237.184L234.589 291.482ZM172.877 247.388L199.392 240.283L228.96 294.581L219.49 297.118L194.611 251.431L182.524 254.669L183.13 292.539L173.639 295.082L172.877 247.388ZM168.964 309.066L195.48 301.961L194.717 254.267L185.226 256.81L185.832 294.68L173.745 297.918L148.866 252.231L139.396 254.768L168.964 309.066ZM107.253 264.971L133.769 257.866L163.336 312.164L153.867 314.701L128.988 269.013L116.901 272.252L117.506 310.122L108.016 312.665L107.253 264.971ZM103.341 326.649L129.856 319.545L129.093 271.851L119.603 274.394L120.209 312.264L108.122 315.502L83.2424 269.815L73.7728 272.352L103.341 326.649ZM41.6281 282.556L68.1437 275.451L97.7114 329.748L88.2418 332.286L63.3626 286.598L51.2757 289.837L51.8813 327.707L42.3908 330.25L41.6281 282.556ZM37.7153 344.233L64.2309 337.128L63.4683 289.434L53.9778 291.977L54.5834 329.847L42.4964 333.086L17.6173 287.398L8.14767 289.936L37.7153 344.233ZM333.619 134.618L360.134 127.514L389.702 181.811L380.232 184.349L355.353 138.661L343.266 141.899L343.872 179.77L334.381 182.312L333.619 134.618ZM329.706 196.296L356.221 189.191L355.459 141.497L345.968 144.04L346.574 181.91L334.487 185.149L309.608 139.461L300.138 141.998L329.706 196.296ZM267.993 152.203L294.508 145.098L324.076 199.396L314.607 201.933L289.727 156.246L277.64 159.484L278.246 197.354L268.756 199.897L267.993 152.203ZM264.081 213.88L290.597 206.775L289.834 159.081L280.344 161.624L280.949 199.494L268.862 202.733L243.983 157.045L234.513 159.582L264.081 213.88ZM202.37 169.786L228.886 162.681L258.453 216.979L248.984 219.516L224.105 173.828L212.018 177.067L212.623 214.937L203.133 217.48L202.37 169.786ZM198.457 231.463L224.973 224.359L224.21 176.665L214.72 179.208L215.325 217.078L203.238 220.316L178.359 174.629L168.89 177.166L198.457 231.463ZM136.745 187.372L163.26 180.267L192.828 234.565L183.358 237.102L158.479 191.414L146.392 194.653L146.998 232.523L137.507 235.066L136.745 187.372ZM132.833 249.048L159.349 241.943L158.586 194.249L149.095 196.792L149.701 234.662L137.614 237.901L112.735 192.213L103.265 194.751L132.833 249.048ZM71.1216 204.954L97.6372 197.849L127.205 252.146L117.735 254.684L92.8561 208.996L80.7692 212.235L81.3748 250.105L71.8843 252.648L71.1216 204.954ZM67.2089 266.631L93.7245 259.526L92.9618 211.832L83.4713 214.375L84.0769 252.245L71.99 255.484L47.1108 209.796L37.6412 212.333L67.2089 266.631ZM5.49596 222.539L32.0116 215.435L61.5793 269.732L52.1097 272.269L27.2305 226.582L15.1436 229.82L15.7491 267.69L6.25863 270.233L5.49596 222.539ZM1.58423 284.216L28.0999 277.111L27.3372 229.417L17.8467 231.96L18.4523 269.83L6.36533 273.069L-18.5138 227.381L-27.9834 229.918L1.58423 284.216ZM368.468 264.679L394.984 257.574L424.551 311.872L415.082 314.409L390.202 268.721L378.116 271.96L378.721 309.83L369.231 312.373L368.468 264.679ZM364.555 326.356L391.071 319.251L390.308 271.557L380.818 274.1L381.423 311.97L369.336 315.209L344.457 269.521L334.988 272.059L364.555 326.356ZM302.842 282.265L329.358 275.16L358.926 329.457L349.456 331.995L324.577 286.307L312.49 289.546L313.095 327.416L303.605 329.959L302.842 282.265ZM298.931 343.941L325.446 336.836L324.684 289.142L315.193 291.685L315.799 329.555L303.712 332.794L278.833 287.106L269.363 289.644L298.931 343.941ZM237.22 299.846L263.735 292.742L293.303 347.039L283.833 349.576L258.954 303.889L246.867 307.127L247.473 344.997L237.982 347.54L237.22 299.846ZM233.307 361.524L259.823 354.419L259.06 306.725L249.569 309.268L250.175 347.138L238.088 350.377L213.209 304.689L203.739 307.226L233.307 361.524ZM171.594 317.432L198.11 310.327L227.677 364.625L218.208 367.162L193.329 321.475L181.242 324.713L181.847 362.583L172.357 365.126L171.594 317.432ZM167.682 379.109L194.198 372.004L193.435 324.31L183.945 326.853L184.55 364.723L172.464 367.961L147.584 322.274L138.115 324.811L167.682 379.109ZM105.971 335.014L132.487 327.909L162.054 382.207L152.585 384.744L127.706 339.056L115.619 342.295L116.224 380.165L106.734 382.708L105.971 335.014ZM102.058 396.691L128.574 389.587L127.811 341.893L118.321 344.435L118.926 382.306L106.839 385.544L81.9603 339.856L72.4907 342.394L102.058 396.691ZM40.3455 352.6L66.8611 345.495L96.4288 399.792L86.9592 402.33L62.08 356.642L49.9931 359.881L50.5986 397.751L41.1081 400.294L40.3455 352.6ZM36.4337 414.276L62.9494 407.171L62.1867 359.477L52.6962 362.02L53.3018 399.89L41.2148 403.129L16.3357 357.441L6.86607 359.979L36.4337 414.276Z" fill="url(#paint2_linear_318_3302)"/>
</g>
</g>
<defs>
<filter id="filter0_d_318_3302" x="-21.001" y="-24" width="401.001" height="371.983" filterUnits="userSpaceOnUse" color-interpolation-filters="sRGB">
<feFlood flood-opacity="0" result="BackgroundImageFix"/>
<feColorMatrix in="SourceAlpha" type="matrix" values="0 0 0 0 0 0 0 0 0 0 0 0 0 0 0 0 0 0 127 0" result="hardAlpha"/>
<feOffset dx="-8" dy="5"/>
<feGaussianBlur stdDeviation="6.5"/>
<feColorMatrix type="matrix" values="0 0 0 0 0.270833 0 0 0 0 0.270833 0 0 0 0 0.270833 0 0 0 0.35 0"/>
<feBlend mode="normal" in2="BackgroundImageFix" result="effect1_dropShadow_318_3302"/>
<feBlend mode="normal" in="SourceGraphic" in2="effect1_dropShadow_318_3302" result="shape"/>
</filter>
<linearGradient id="paint0_linear_318_3302" x1="0.989946" y1="317.794" x2="278.551" y2="111.583" gradientUnits="userSpaceOnUse">
<stop stop-color="#48267F"/>
<stop offset="1" stop-color="#48267F" stop-opacity="0.73"/>
</linearGradient>
<linearGradient id="paint1_linear_318_3302" x1="-5.61114e-05" y1="317.788" x2="277.77" y2="110.867" gradientUnits="userSpaceOnUse">
<stop stop-color="#48267F"/>
<stop offset="1" stop-color="#48267F" stop-opacity="0.73"/>
</linearGradient>
<linearGradient id="paint2_linear_318_3302" x1="233.019" y1="363.385" x2="163.013" y2="112.273" gradientUnits="userSpaceOnUse">
<stop stop-opacity="0.1"/>
<stop offset="1" stop-opacity="0"/>
</linearGradient>
</defs>
</svg>
