<svg width="80" height="80" viewBox="0 0 80 80" fill="none" xmlns="http://www.w3.org/2000/svg">
<path d="M40 80C62.0914 80 80 62.0914 80 40C80 17.9086 62.0914 0 40 0C17.9086 0 0 17.9086 0 40C0 62.0914 17.9086 80 40 80Z" fill="#8B90A0" fill-opacity="0.5"/>
<path d="M40.0003 74.0627C21.2179 74.0627 5.9375 58.7822 5.9375 39.9998C5.93724 21.2175 21.2177 5.93701 40.0003 5.93701C58.7827 5.93701 74.0632 21.2175 74.0632 39.9998C74.0629 58.7822 58.7824 74.0627 40.0003 74.0627Z" fill="#8B90A0"/>
<path d="M54.5806 47.9645L46.6163 39.9999L54.5806 32.0356C55.3459 31.2703 55.3459 30.029 54.5806 29.2638L50.737 25.4202C49.9718 24.6549 48.7305 24.6549 47.9652 25.4202L40.0009 33.3845L32.0363 25.4199C31.271 24.6546 30.0297 24.6546 29.2645 25.4199L25.4211 29.2633C24.6559 30.0285 24.6559 31.2698 25.4211 32.035L33.3857 39.9997L25.4214 47.964C24.6561 48.7293 24.6561 49.9705 25.4214 50.7358L29.2647 54.5792C30.03 55.3444 31.2713 55.3444 32.0365 54.5792L40.0009 46.6148L47.9655 54.5794C48.7308 55.3447 49.972 55.3447 50.7373 54.5794L54.5806 50.7361C55.3459 49.9713 55.3459 48.73 54.5806 47.9645Z" fill="white"/>
</svg>
