<svg width="375" height="137" viewBox="0 0 375 137" fill="none" xmlns="http://www.w3.org/2000/svg">
<g opacity="0.1" filter="url(#filter0_d_318_3460)">
<path fill-rule="evenodd" clip-rule="evenodd" d="M-3.85345e-06 113.122C-0.00097576 112.432 -0.000975722 111.719 -0.000975682 110.982L-0.000975478 107.149L-0.000972083 43.6548C-0.000971544 33.5613 -0.000971274 28.5145 3.08525 25.0903C6.17148 21.6661 11.1016 21.1528 20.9617 20.1263C82.3694 13.7334 174.657 8.67298 186.282 8.04812C186.878 8.01604 187.177 8 187.499 8C187.821 8 188.12 8.01604 188.716 8.04812L188.717 8.04812C200.341 8.67298 292.629 13.7334 354.036 20.1264C363.897 21.1529 368.827 21.6661 371.913 25.0903C374.999 28.5145 374.999 33.5613 374.999 43.6549L374.999 110.983C374.999 110.989 374.999 110.994 374.999 111H375L375 233L-2.82969e-06 233L-3.85345e-06 113.122Z" fill="white"/>
<path fill-rule="evenodd" clip-rule="evenodd" d="M-3.85345e-06 113.122C-0.00097576 112.432 -0.000975722 111.719 -0.000975682 110.982L-0.000975478 107.149L-0.000972083 43.6548C-0.000971544 33.5613 -0.000971274 28.5145 3.08525 25.0903C6.17148 21.6661 11.1016 21.1528 20.9617 20.1263C82.3694 13.7334 174.657 8.67298 186.282 8.04812C186.878 8.01604 187.177 8 187.499 8C187.821 8 188.12 8.01604 188.716 8.04812L188.717 8.04812C200.341 8.67298 292.629 13.7334 354.036 20.1264C363.897 21.1529 368.827 21.6661 371.913 25.0903C374.999 28.5145 374.999 33.5613 374.999 43.6549L374.999 110.983C374.999 110.989 374.999 110.994 374.999 111H375L375 233L-2.82969e-06 233L-3.85345e-06 113.122Z" fill="url(#paint0_linear_318_3460)"/>
</g>
<defs>
<filter id="filter0_d_318_3460" x="-21.001" y="0" width="401.001" height="251" filterUnits="userSpaceOnUse" color-interpolation-filters="sRGB">
<feFlood flood-opacity="0" result="BackgroundImageFix"/>
<feColorMatrix in="SourceAlpha" type="matrix" values="0 0 0 0 0 0 0 0 0 0 0 0 0 0 0 0 0 0 127 0" result="hardAlpha"/>
<feOffset dx="-8" dy="5"/>
<feGaussianBlur stdDeviation="6.5"/>
<feColorMatrix type="matrix" values="0 0 0 0 0.270833 0 0 0 0 0.270833 0 0 0 0 0.270833 0 0 0 0.35 0"/>
<feBlend mode="normal" in2="BackgroundImageFix" result="effect1_dropShadow_318_3460"/>
<feBlend mode="normal" in="SourceGraphic" in2="effect1_dropShadow_318_3460" result="shape"/>
</filter>
<linearGradient id="paint0_linear_318_3460" x1="374.008" y1="20.1894" x2="96.4466" y2="226.4" gradientUnits="userSpaceOnUse">
<stop stop-color="#48267F"/>
<stop offset="1" stop-color="#48267F" stop-opacity="0.73"/>
</linearGradient>
</defs>
</svg>
