<svg width="185" height="85" viewBox="0 0 185 85" fill="none" xmlns="http://www.w3.org/2000/svg">
<path d="M113.138 35.4939C113.138 35.9153 113.15 36.7679 113.138 37.5082H98.0503V17.4746H113.146C113.146 18.0772 113.146 18.9214 113.146 19.4889C113.146 20.0564 113.146 20.8009 113.146 21.5075C112.617 21.5075 111.693 21.5075 111.125 21.5075H102.06V33.4866H109.121V31.5692H107.12C106.558 31.5692 105.819 31.5692 105.096 31.5692C105.096 31.0073 105.096 30.1139 105.096 29.5436C105.096 28.9733 105.096 28.0814 105.096 27.5363H111.127C111.689 27.5363 112.653 27.5251 113.148 27.5363C113.148 28.198 113.148 28.9663 113.148 29.5338L113.138 35.4939Z" fill="#47277E"/>
<path d="M129.753 35.4939V37.5082H125.741C125.741 36.8831 125.741 36.0642 125.741 35.4981V31.565H118.675V35.4981C118.675 36.06 118.675 36.8016 118.675 37.5082H114.656V17.4746H129.753V35.4939ZM125.738 27.542V21.5018H118.675V27.542H125.738Z" fill="#47277E"/>
<path d="M146.872 19.4887C146.872 19.9789 146.872 20.9692 146.872 21.5072C146.565 21.5072 145.961 21.5072 145.426 21.5072H140.828V35.4852C140.828 36.0471 140.828 36.7972 140.828 37.5065C140.244 37.5136 139.392 37.5136 138.826 37.5136H136.811C136.811 36.8225 136.811 36.0527 136.811 35.4852V21.5016H132.798C132.235 21.5016 131.912 21.5016 130.773 21.5016C130.773 21.0142 130.782 20.0506 130.782 19.4831C130.782 18.9156 130.773 18.3158 130.773 17.4688H146.871C146.871 18.4029 146.872 18.9212 146.872 19.4887Z" fill="#47277E"/>
<path d="M162.994 35.411C162.994 35.8198 163.002 36.73 163.002 37.4239H147.899C147.899 36.619 147.899 35.2523 147.899 34.4123V20.4862C147.899 19.6434 147.886 18.493 147.899 17.4746H162.997C162.997 18.3006 162.988 18.9214 162.988 19.4889C162.988 20.0564 162.997 20.5747 162.997 21.5075C162.434 21.5075 161.54 21.5075 160.972 21.5075H151.914V27.5476H158.958C159.52 27.5476 160.48 27.5363 160.974 27.5363C160.974 28.3792 160.974 28.9832 160.974 29.5535C160.974 30.1238 160.974 30.4848 160.974 31.579H158.958H151.914V33.4051H160.972H162.997C163.002 34.0597 162.994 34.8435 162.994 35.411Z" fill="#47277E"/>
<path d="M35.0166 20.7941C35.0166 20.7941 41.0614 17.3372 43.0295 17.5184C43.0295 17.5184 44.7249 17.6701 45.8003 17.9721C45.8003 17.9721 46.9966 17.201 49.5706 17.5788C49.5706 17.5788 49.2529 19.5974 47.7838 20.9149H47.2342C47.2342 20.9149 48.7637 19.0608 48.8438 18.291C48.8438 18.291 47.1175 17.5648 45.1635 19.6521L45.4362 18.5481C45.4362 18.5481 42.5501 17.8176 40.8998 18.6197L35.0166 20.7941Z" fill="#EE7A23"/>
<path d="M163.014 38.601V42.6198H92.9751L87.9213 21.5018H77.8321L76.8452 17.4746H91.9446L96.9534 38.601H163.014Z" fill="#EE7A23"/>
<path d="M47.7839 20.9199L52.7674 42.6251H47.8683L44.6533 29.0671C44.3765 27.6017 44.4674 26.0907 44.9178 24.669C45.3682 23.2473 46.1641 21.9592 47.2343 20.9199" fill="#EE7A23"/>
<path d="M87.775 27.4941L88.7619 31.5649H73.7285L72.7529 27.4984L87.775 27.4941Z" fill="#EE7A23"/>
<path d="M33.5065 27.5419L42.7143 27.5391L43.6913 31.5691H36.0411L31.1279 27.5461L33.5065 27.5419Z" fill="#EE7A23"/>
<path d="M84.6783 38.6006L85.6694 42.6194H76.3716L75.4072 38.6006H84.6783Z" fill="#EE7A23"/>
<path d="M64.2749 21.5018L59.2211 42.6198H54.2925L60.2516 17.4746H65.2449L64.2749 21.5018Z" fill="#EE7A23"/>
<path d="M75.3032 17.4805L76.2648 21.5316L80.073 37.5084H75.1486L71.3249 21.5316L70.3408 17.4805H75.3032Z" fill="#EE7A23"/>
<path d="M59.2983 21.499L60.2515 17.4746L75.3031 17.4802L76.2562 21.499H59.2983Z" fill="#EE7A23"/>
<path d="M22.0566 26.941C22.5529 26.9045 23.0899 26.8427 23.662 26.7457C24.1119 26.6657 24.5572 26.5621 24.9961 26.4353C25.4242 26.3148 25.8648 26.2441 26.3091 26.2246C26.1181 26.5008 25.8551 26.7194 25.5486 26.8567C25.2435 26.9972 24.9047 27.1615 24.7051 27.2599C24.5693 27.3244 24.4512 27.4208 24.3607 27.5408C24.0332 27.9847 24.8359 27.8217 25.4235 27.6686C25.8536 27.5715 26.2943 27.5295 26.7351 27.5436H29.3034V29.7995H27.348C27.348 29.7995 23.7576 29.9709 22.4643 27.9046C22.2782 27.607 22.1406 27.2817 22.0566 26.941Z" fill="#EE7A23"/>
<path d="M22.0551 26.6978C22.0551 26.6978 21.9342 26.0938 22.176 25.8915C22.176 25.8915 22.8634 25.0248 23.0448 24.4868C23.0448 24.4868 23.5298 23.3153 24.2959 22.731C24.2959 22.731 24.6403 22.3475 24.6193 21.9036C24.6193 21.9036 25.3531 19.496 33.7104 20.9203C33.7104 20.9203 25.9519 21.0341 25.2251 22.3868C25.2251 22.3868 25.003 22.8082 25.488 22.5273C26.0083 22.3238 26.5645 22.2282 27.1229 22.2464C27.1229 22.2464 27.144 24.1623 24.5391 24.0415C24.5391 24.0415 24.1427 23.9938 23.9768 24.2438C23.974 24.2368 22.5401 26.0727 22.0551 26.6978Z" fill="#EE7A23"/>
<path d="M23.2122 42.5684C22.9057 42.5684 22.6118 42.4467 22.3951 42.2302C22.1784 42.0136 22.0566 41.7199 22.0566 41.4137C22.0566 41.1075 22.1784 40.8138 22.3951 40.5972C22.6118 40.3807 22.9057 40.2591 23.2122 40.2591H29.8742C31.1832 40.1453 32.4021 39.5458 33.2907 38.5786C34.1794 37.6114 34.6732 36.3467 34.675 35.0337C34.6767 33.7208 34.1863 32.4548 33.3003 31.4852C32.4143 30.5157 31.1969 29.9128 29.8882 29.7956H27.348C27.1194 29.7943 26.8962 29.7258 26.7064 29.5985C26.5166 29.4712 26.3686 29.2908 26.2808 29.0799C26.1931 28.869 26.1695 28.6369 26.213 28.4127C26.2565 28.1884 26.3653 27.982 26.5256 27.8192C26.7477 27.5973 27.005 27.5383 27.3311 27.5383H30.9116C31.8513 27.5318 32.783 27.7108 33.6532 28.0651C34.5235 28.4194 35.3151 28.9419 35.9827 29.6027C36.6503 30.2635 37.1807 31.0496 37.5434 31.9158C37.9062 32.782 38.0942 33.7112 38.0965 34.6502V34.9213C38.0967 35.9254 37.8989 36.9198 37.5145 37.8476C37.13 38.7754 36.5665 39.6184 35.8559 40.3285C35.1454 41.0386 34.3018 41.6019 33.3734 41.9862C32.445 42.3706 31.4498 42.5684 30.4449 42.5684H23.2122Z" fill="#EE7A23"/>
<path d="M26.4286 52.4386C25.9196 52.6537 25.37 52.7563 24.8176 52.7392C23.3725 52.7392 21.9878 51.8163 21.9878 49.6952C21.9878 47.9211 23.1321 46.5811 25.0186 46.5811C25.7792 46.5811 26.2206 46.7496 26.4047 46.8423L26.2642 47.1991C25.8741 47.0209 25.4489 46.9326 25.0201 46.9407C23.409 46.9407 22.425 47.9885 22.425 49.7051C22.425 51.3289 23.3514 52.374 24.9554 52.374C25.4205 52.3817 25.8816 52.2857 26.3049 52.093L26.4286 52.4386Z" fill="#47277E"/>
<path d="M28.4855 50.5588L27.7475 52.6475H27.3159L29.4766 46.6748H29.8871L32.0393 52.6475H31.6035L30.8514 50.5588H28.4855ZM30.7235 50.2034L29.9953 48.2087C29.8547 47.7873 29.7704 47.4951 29.6832 47.1566H29.6622C29.5764 47.5062 29.4732 47.8512 29.3529 48.1905L28.6205 50.2034H30.7235Z" fill="#47277E"/>
<path d="M38.292 49.8161C38.2344 48.9199 38.1627 47.8214 38.1697 47.1683H38.1458C37.9307 47.8172 37.6847 48.5111 37.3403 49.3989L36.0864 52.6465H35.7911L34.6145 49.472C34.2729 48.5421 34.0199 47.8257 33.8399 47.1683H33.8174C33.802 47.8706 33.7598 48.9101 33.6895 49.899L33.5011 52.6465H33.0864L33.5236 46.6738H34.0072L35.2921 50.1167C35.5732 50.8766 35.7841 51.4764 35.9528 52.0524H35.9725C36.1257 51.5017 36.3394 50.9286 36.6444 50.1237L37.9771 46.6738H38.4832L38.8838 52.6465H38.4621L38.292 49.8161Z" fill="#47277E"/>
<path d="M43.3091 49.6784H40.9193V52.2897H43.5903V52.6465H40.4976V46.6738H43.4497V47.0306H40.9193V49.3217H43.3091V49.6784Z" fill="#47277E"/>
<path d="M44.9761 46.6738H45.3978V52.2925H48.0618V52.6465H44.9761V46.6738Z" fill="#47277E"/>
<path d="M55.8697 52.3851C55.3158 52.6023 54.7257 52.7124 54.1307 52.7096C53.3393 52.7096 52.6167 52.5073 52.0221 51.9272C51.5272 51.4468 51.1997 50.6447 51.1997 49.6797C51.1997 48.025 52.2878 46.6147 54.3191 46.6147C54.7963 46.6073 55.2699 46.6976 55.7108 46.8802L55.5703 47.2299C55.1699 47.0484 54.7333 46.9605 54.2938 46.9729C52.6448 46.9729 51.6355 48.0404 51.6355 49.6586C51.6355 51.3443 52.6195 52.3472 54.2024 52.3472C54.8308 52.3472 55.2315 52.2545 55.4536 52.1393V50.0323H54.0675V49.6853H55.8739L55.8697 52.3851Z" fill="#47277E"/>
<path d="M58.1764 50.5588L57.4384 52.6475H57.0054L59.1675 46.6748H59.5765L61.7302 52.6475H61.2916L60.5423 50.5588H58.1764ZM60.413 50.2034L59.6862 48.2087C59.5456 47.7873 59.4598 47.4951 59.3727 47.1566H59.3516C59.2673 47.5036 59.1717 47.814 59.0409 48.1905L58.3085 50.2034H60.413Z" fill="#47277E"/>
<path d="M63.482 47.0292H61.5322V46.6738H65.8508V47.0292H63.9024V52.6479H63.4806L63.482 47.0292Z" fill="#47277E"/>
<path d="M69.6294 49.6784H67.2396V52.2897H69.9106V52.6465H66.8179V46.6738H69.77V47.0306H67.2396V49.3217H69.6294V49.6784Z" fill="#47277E"/>
<path d="M73.584 46.6738H76.5361V47.0306H74.0057V49.4017H76.3337V49.7571H74.0057V52.6465H73.584V46.6738Z" fill="#47277E"/>
<path d="M82.9198 49.6014C82.9198 51.7084 81.6293 52.7437 80.2488 52.7437C78.7784 52.7437 77.6411 51.5877 77.6411 49.7208C77.6411 47.7627 78.8276 46.5771 80.3219 46.5771C81.8163 46.5771 82.9198 47.7501 82.9198 49.6014ZM78.0769 49.7068C78.0769 51.0511 78.8585 52.3925 80.2713 52.3925C81.6841 52.3925 82.4812 51.1044 82.4812 49.6281C82.4812 48.3639 81.7924 46.9297 80.2882 46.9297C78.784 46.9297 78.0769 48.3119 78.0769 49.7068Z" fill="#47277E"/>
<path d="M84.3242 46.7566C84.7479 46.67 85.1793 46.6262 85.6118 46.626C86.3906 46.626 86.877 46.7945 87.2186 47.1289C87.4941 47.4138 87.6457 47.796 87.6404 48.1922C87.6404 48.9943 87.1638 49.5126 86.4694 49.7472V49.7654C86.9501 49.92 87.2524 50.3723 87.3944 51.0297C87.5982 51.9624 87.7149 52.4062 87.84 52.6408H87.3986C87.303 52.468 87.1765 51.9385 87.0176 51.187C86.8335 50.3259 86.4651 49.9354 85.6779 49.9031H84.7445V52.6408H84.3228L84.3242 46.7566ZM84.7459 49.566H85.6948C86.617 49.566 87.2158 49.049 87.2158 48.2638C87.2158 47.3466 86.5425 46.9743 85.6062 46.9743C85.3173 46.9686 85.0286 46.9959 84.7459 47.0558V49.566Z" fill="#47277E"/>
<path d="M91.4355 46.6738H91.8573V52.2925H94.5283V52.6465H91.4355V46.6738Z" fill="#47277E"/>
<path d="M100.302 49.6014C100.302 51.7084 99.0117 52.7437 97.6312 52.7437C96.1622 52.7437 95.0249 51.5877 95.0249 49.7208C95.0249 47.7627 96.21 46.5771 97.7043 46.5771C99.1986 46.5771 100.302 47.7501 100.302 49.6014ZM95.4579 49.7068C95.4579 51.0511 96.2409 52.3925 97.6523 52.3925C99.0637 52.3925 99.8622 51.1044 99.8622 49.6281C99.8622 48.3639 99.1733 46.9297 97.6706 46.9297C96.1678 46.9297 95.4523 48.3119 95.4523 49.7068H95.4579Z" fill="#47277E"/>
<path d="M105.996 52.3851C105.441 52.6021 104.851 52.7122 104.255 52.7096C103.464 52.7096 102.741 52.5073 102.147 51.9271C101.652 51.4467 101.324 50.6447 101.324 49.6797C101.324 48.0249 102.412 46.6146 104.442 46.6146C104.92 46.6076 105.394 46.698 105.835 46.8801L105.695 47.2299C105.294 47.0485 104.858 46.9606 104.418 46.9728C102.768 46.9728 101.76 48.0404 101.76 49.6586C101.76 51.3442 102.744 52.3471 104.327 52.3471C104.954 52.3471 105.356 52.2544 105.577 52.1393V50.0322H104.192V49.6853H105.996V52.3851Z" fill="#47277E"/>
<path d="M108.006 46.6738V52.6465H107.584V46.6738H108.006Z" fill="#47277E"/>
<path d="M109.614 51.9858C109.999 52.2441 110.452 52.3829 110.916 52.3847C111.81 52.3847 112.356 51.8777 112.356 51.1416C112.356 50.473 112.009 50.0783 111.146 49.7454C110.185 49.4054 109.608 48.911 109.608 48.0977C109.608 47.2225 110.331 46.5848 111.346 46.5848C111.761 46.5683 112.173 46.6654 112.536 46.8658L112.372 47.2211C112.055 47.0281 111.689 46.9306 111.318 46.9402C110.353 46.9402 110.024 47.5583 110.024 48.0274C110.024 48.6904 110.408 49.029 111.264 49.3633C112.248 49.7622 112.774 50.2061 112.774 51.1051C112.774 51.9704 112.153 52.7457 110.879 52.7457C110.362 52.7457 109.754 52.5772 109.451 52.3454L109.614 51.9858Z" fill="#47277E"/>
<path d="M115.395 47.0292H113.446V46.6738H117.765V47.0292H115.816V52.6479H115.395V47.0292Z" fill="#47277E"/>
<path d="M119.154 46.6738V52.6465H118.732V46.6738H119.154Z" fill="#47277E"/>
<path d="M124.998 52.4386C124.489 52.6537 123.94 52.7563 123.387 52.7392C121.942 52.7392 120.558 51.8163 120.558 49.6952C120.558 47.9211 121.702 46.5811 123.588 46.5811C124.349 46.5811 124.79 46.7496 124.975 46.8423L124.834 47.1991C124.444 47.0209 124.019 46.9326 123.59 46.9407C121.979 46.9407 120.995 47.9885 120.995 49.7051C120.995 51.3289 121.921 52.374 123.525 52.374C123.99 52.3817 124.451 52.2857 124.875 52.093L124.998 52.4386Z" fill="#47277E"/>
<path d="M128.448 51.9858C128.834 52.2441 129.288 52.3829 129.753 52.3847C130.647 52.3847 131.194 51.8777 131.194 51.1416C131.194 50.473 130.847 50.0783 129.983 49.7454C129.022 49.4054 128.446 48.911 128.446 48.0977C128.446 47.2225 129.168 46.5848 130.183 46.5848C130.598 46.5683 131.01 46.6654 131.374 46.8658L131.209 47.2211C130.892 47.0281 130.526 46.9306 130.155 46.9402C129.191 46.9402 128.862 47.5583 128.862 48.0274C128.862 48.6904 129.245 49.029 130.102 49.3633C131.086 49.7622 131.611 50.2061 131.611 51.1051C131.611 51.9704 130.99 52.7457 129.715 52.7457C129.199 52.7457 128.59 52.5772 128.288 52.3454L128.448 51.9858Z" fill="#47277E"/>
<path d="M135.909 49.6784H133.519V52.2897H136.19V52.6465H133.097V46.6738H136.049V47.0306H133.519V49.3217H135.909V49.6784Z" fill="#47277E"/>
<path d="M137.576 46.7562C138.001 46.6697 138.434 46.6264 138.868 46.627C139.647 46.627 140.133 46.7955 140.476 47.1298C140.752 47.4148 140.903 47.797 140.898 48.1932C140.898 48.9952 140.421 49.5136 139.728 49.7482V49.7664C140.209 49.9209 140.51 50.3732 140.652 51.0306C140.856 51.9633 140.974 52.4072 141.098 52.6418H140.656C140.561 52.469 140.436 51.9395 140.275 51.188C140.091 50.3269 139.723 49.9364 138.937 49.9041H138.004V52.6418H137.582L137.576 46.7562ZM137.998 49.5656H138.947C139.869 49.5656 140.466 49.0486 140.466 48.2634C140.466 47.3461 139.793 46.9739 138.857 46.9739C138.568 46.9681 138.28 46.9954 137.998 47.0554V49.5656Z" fill="#47277E"/>
<path d="M143.919 52.6465L141.937 46.6738H142.381L143.436 49.8751C143.717 50.739 143.968 51.4989 144.138 52.1633H144.161C144.338 51.4905 144.616 50.7123 144.924 49.8779L146.09 46.6738H146.538L144.325 52.6465H143.919Z" fill="#47277E"/>
<path d="M147.938 46.6738V52.6465H147.516V46.6738H147.938Z" fill="#47277E"/>
<path d="M153.792 52.4386C153.282 52.6536 152.732 52.7561 152.179 52.7392C150.734 52.7392 149.351 51.8163 149.351 49.6952C149.351 47.9211 150.495 46.5811 152.382 46.5811C153.142 46.5811 153.584 46.7496 153.767 46.8423L153.626 47.1991C153.236 47.0211 152.811 46.9328 152.382 46.9407C150.771 46.9407 149.785 47.9885 149.785 49.7051C149.785 51.3289 150.713 52.374 152.316 52.374C152.781 52.3817 153.242 52.2857 153.665 52.093L153.792 52.4386Z" fill="#47277E"/>
<path d="M157.946 49.6784H155.556V52.2897H158.227V52.6465H155.134V46.6738H158.086V47.0306H155.556V49.3217H157.946V49.6784Z" fill="#47277E"/>
<path d="M159.425 51.9861C159.812 52.2434 160.266 52.3807 160.731 52.3808C161.624 52.3808 162.172 51.8737 162.172 51.1377C162.172 50.469 161.823 50.0743 160.962 49.7414C159.999 49.4015 159.415 48.907 159.415 48.0937C159.415 47.2186 160.138 46.5809 161.154 46.5809C161.569 46.5645 161.981 46.6617 162.345 46.8618L162.18 47.2172C161.863 47.0242 161.496 46.9267 161.125 46.9363C160.16 46.9363 159.833 47.5543 159.833 48.0235C159.833 48.6865 160.217 49.025 161.071 49.3593C162.055 49.7583 162.581 50.2021 162.581 51.1011C162.581 51.9664 161.961 52.7418 160.686 52.7418C160.17 52.7418 159.568 52.5732 159.258 52.3415L159.425 51.9861Z" fill="#47277E"/>
<path d="M26.7106 62.1175C26.3897 62.1175 26.1044 62.0729 25.8547 61.9838C25.611 61.8887 25.4149 61.7313 25.2663 61.5114C25.1236 61.2856 25.0434 60.9737 25.0255 60.5756L24.8829 57.4738H25.6051L25.7477 60.4151C25.7656 60.6944 25.8161 60.9053 25.8993 61.0479C25.9825 61.1846 26.0984 61.2767 26.247 61.3242C26.4015 61.3658 26.5858 61.3866 26.7998 61.3866C26.9246 61.3866 27.0138 61.4223 27.0673 61.4936C27.1267 61.559 27.1564 61.6392 27.1564 61.7342C27.1564 61.8293 27.1148 61.9185 27.0316 62.0016C26.9484 62.0789 26.8414 62.1175 26.7106 62.1175ZM25.3643 61.1371C25.0255 61.244 24.6957 61.2975 24.3747 61.2975C24.0537 61.2975 23.7625 61.25 23.5009 61.1549C23.2394 61.0598 23.0314 60.9232 22.8768 60.7449C22.7223 60.5607 22.645 60.3408 22.645 60.0853C22.645 59.8358 22.7074 59.6011 22.8323 59.3812C22.963 59.1613 23.1384 58.9653 23.3583 58.7929C23.5842 58.6206 23.8427 58.478 24.134 58.3651C24.4312 58.2463 24.7462 58.1661 25.079 58.1245L25.2039 58.8732C24.9067 58.885 24.6422 58.9266 24.4103 58.9979C24.1845 59.0633 23.9913 59.1495 23.8308 59.2564C23.6763 59.3634 23.5574 59.4792 23.4742 59.604C23.391 59.7288 23.3494 59.8506 23.3494 59.9695C23.3494 60.1002 23.3969 60.2071 23.492 60.2903C23.5871 60.3735 23.709 60.4389 23.8576 60.4864C24.0062 60.528 24.1696 60.5548 24.3479 60.5666C24.5263 60.5726 24.6986 60.5666 24.8651 60.5488C25.0315 60.525 25.1741 60.4924 25.293 60.4508L25.3643 61.1371ZM25.1771 56.4488C25.0523 56.4488 24.9453 56.4072 24.8561 56.324C24.7729 56.2349 24.7313 56.1309 24.7313 56.0121C24.7313 55.8932 24.7729 55.7892 24.8561 55.7001C24.9453 55.611 25.0523 55.5664 25.1771 55.5664C25.296 55.5664 25.397 55.611 25.4802 55.7001C25.5694 55.7892 25.614 55.8932 25.614 56.0121C25.614 56.1309 25.5694 56.2349 25.4802 56.324C25.397 56.4072 25.296 56.4488 25.1771 56.4488ZM23.9556 56.4488C23.8308 56.4488 23.7238 56.4072 23.6347 56.324C23.5515 56.2349 23.5099 56.1309 23.5099 56.0121C23.5099 55.8932 23.5515 55.7892 23.6347 55.7001C23.7238 55.611 23.8308 55.5664 23.9556 55.5664C24.0745 55.5664 24.1756 55.611 24.2588 55.7001C24.3479 55.7892 24.3925 55.8932 24.3925 56.0121C24.3925 56.1309 24.3479 56.2349 24.2588 56.324C24.1756 56.4072 24.0745 56.4488 23.9556 56.4488Z" fill="#47277E"/>
<path d="M27.828 62.1175L27.9172 61.3866C28.2144 61.3866 28.4462 61.3658 28.6126 61.3242C28.779 61.2767 28.9039 61.1906 28.9871 61.0658C29.0762 60.935 29.1476 60.7479 29.2011 60.5042C29.2546 60.2606 29.3199 59.9427 29.3972 59.5505L30.0926 59.6842C30.0689 59.7912 30.0421 59.91 30.0124 60.0408C29.9827 60.1715 29.9559 60.3022 29.9322 60.4329C29.9143 60.5577 29.9054 60.6677 29.9054 60.7627C29.9054 60.8519 29.9114 60.935 29.9232 61.0123C29.9351 61.0895 29.9797 61.1549 30.057 61.2084C30.1342 61.2619 30.265 61.3064 30.4493 61.3421C30.6335 61.3718 30.898 61.3866 31.2428 61.3866C31.3676 61.3866 31.4568 61.4223 31.5103 61.4936C31.5697 61.559 31.5994 61.6392 31.5994 61.7342C31.5994 61.8293 31.5578 61.9185 31.4746 62.0016C31.3914 62.0789 31.2844 62.1175 31.1536 62.1175C30.791 62.1175 30.5028 62.0997 30.2888 62.064C30.0748 62.0224 29.9114 61.963 29.7984 61.8858C29.6914 61.8085 29.6142 61.7135 29.5666 61.6006C29.525 61.4817 29.4923 61.345 29.4685 61.1906L29.736 61.2084C29.6409 61.3985 29.5369 61.553 29.424 61.6719C29.317 61.7907 29.1921 61.8828 29.0495 61.9482C28.9068 62.0135 28.7345 62.0581 28.5324 62.0819C28.3362 62.1056 28.1014 62.1175 27.828 62.1175ZM30.0748 63.8021C29.95 63.8021 29.843 63.7575 29.7538 63.6684C29.6706 63.5852 29.629 63.4842 29.629 63.3653C29.629 63.2465 29.6706 63.1425 29.7538 63.0534C29.843 62.9643 29.95 62.9197 30.0748 62.9197C30.1937 62.9197 30.2947 62.9643 30.3779 63.0534C30.4671 63.1425 30.5117 63.2465 30.5117 63.3653C30.5117 63.4842 30.4671 63.5852 30.3779 63.6684C30.2947 63.7575 30.1937 63.8021 30.0748 63.8021ZM28.8533 63.8021C28.7285 63.8021 28.6215 63.7575 28.5324 63.6684C28.4492 63.5852 28.4076 63.4842 28.4076 63.3653C28.4076 63.2465 28.4492 63.1425 28.5324 63.0534C28.6215 62.9643 28.7285 62.9197 28.8533 62.9197C28.9722 62.9197 29.0733 62.9643 29.1565 63.0534C29.2456 63.1425 29.2902 63.2465 29.2902 63.3653C29.2902 63.4842 29.2456 63.5852 29.1565 63.6684C29.0733 63.7575 28.9722 63.8021 28.8533 63.8021Z" fill="#47277E"/>
<path d="M32.2685 62.1175L32.3577 61.3866C32.6549 61.3866 32.8867 61.3658 33.0531 61.3242C33.2195 61.2767 33.3444 61.1906 33.4276 61.0658C33.5167 60.935 33.5881 60.7479 33.6416 60.5042C33.695 60.2606 33.7604 59.9427 33.8377 59.5505L34.5331 59.6842C34.5094 59.7912 34.4826 59.91 34.4529 60.0408C34.4232 60.1715 34.3964 60.3022 34.3726 60.4329C34.3548 60.5577 34.3459 60.6677 34.3459 60.7627C34.3459 60.8519 34.3518 60.935 34.3637 61.0123C34.3756 61.0895 34.4202 61.1549 34.4975 61.2084C34.5747 61.2619 34.7055 61.3064 34.8898 61.3421C35.074 61.3718 35.3385 61.3866 35.6833 61.3866C35.8081 61.3866 35.8973 61.4223 35.9507 61.4936C36.0102 61.559 36.0399 61.6392 36.0399 61.7342C36.0399 61.8293 35.9983 61.9185 35.9151 62.0016C35.8319 62.0789 35.7249 62.1175 35.5941 62.1175C35.2315 62.1175 34.9433 62.0997 34.7293 62.064C34.5153 62.0224 34.3518 61.963 34.2389 61.8858C34.1319 61.8085 34.0547 61.7135 34.0071 61.6006C33.9655 61.4817 33.9328 61.345 33.909 61.1906L34.1765 61.2084C34.0814 61.3985 33.9774 61.553 33.8644 61.6719C33.7575 61.7907 33.6326 61.8828 33.49 61.9482C33.3473 62.0135 33.175 62.0581 32.9729 62.0819C32.7767 62.1056 32.5419 62.1175 32.2685 62.1175ZM34.649 58.6325C34.5242 58.6325 34.4172 58.5909 34.3281 58.5077C34.2449 58.4186 34.2032 58.3146 34.2032 58.1958C34.2032 58.0769 34.2449 57.9729 34.3281 57.8838C34.4172 57.7947 34.5242 57.7501 34.649 57.7501C34.7679 57.7501 34.869 57.7947 34.9522 57.8838C35.0413 57.9729 35.0859 58.0769 35.0859 58.1958C35.0859 58.3146 35.0413 58.4186 34.9522 58.5077C34.869 58.5909 34.7679 58.6325 34.649 58.6325ZM33.4276 58.6325C33.3028 58.6325 33.1958 58.5909 33.1066 58.5077C33.0234 58.4186 32.9818 58.3146 32.9818 58.1958C32.9818 58.0769 33.0234 57.9729 33.1066 57.8838C33.1958 57.7947 33.3028 57.7501 33.4276 57.7501C33.5464 57.7501 33.6475 57.7947 33.7307 57.8838C33.8199 57.9729 33.8644 58.0769 33.8644 58.1958C33.8644 58.3146 33.8199 58.4186 33.7307 58.5077C33.6475 58.5909 33.5464 58.6325 33.4276 58.6325Z" fill="#47277E"/>
<path d="M36.709 62.1175L36.7982 61.3866C36.9884 61.3866 37.1429 61.3748 37.2618 61.351C37.3807 61.3213 37.4787 61.2529 37.556 61.146C37.6392 61.0331 37.7165 60.8578 37.7878 60.6201C37.8591 60.3824 37.9424 60.0497 38.0375 59.6219L38.7061 59.809C38.6705 59.9576 38.6289 60.1358 38.5813 60.3438C38.5338 60.5518 38.51 60.7419 38.51 60.9142C38.51 61.0093 38.5338 61.0925 38.5813 61.1638C38.6289 61.2351 38.7091 61.2916 38.8221 61.3332C38.9409 61.3688 39.0984 61.3866 39.2946 61.3866C39.4729 61.3866 39.6185 61.3718 39.7315 61.3421C39.8444 61.3124 39.9365 61.2411 40.0079 61.1282C40.0851 61.0153 40.1535 60.834 40.2129 60.5845C40.2724 60.3349 40.3348 59.9932 40.4002 59.5595L41.0778 59.6842C41.0599 59.7912 41.0391 59.9219 41.0153 60.0764C40.9916 60.2309 40.9678 60.3854 40.944 60.5399C40.9262 60.6884 40.9173 60.8132 40.9173 60.9142C40.9173 60.9974 40.9351 61.0777 40.9708 61.1549C41.0124 61.2262 41.0896 61.2827 41.2026 61.3242C41.3215 61.3658 41.4968 61.3866 41.7286 61.3866C42.0258 61.3866 42.2398 61.3242 42.3705 61.1995C42.5073 61.0747 42.5756 60.8845 42.5756 60.629C42.5756 60.4924 42.5726 60.3498 42.5667 60.2012C42.5607 60.0467 42.5489 59.8774 42.531 59.6932C42.5191 59.503 42.4983 59.2861 42.4686 59.0425L43.1195 58.9979C43.1551 59.4792 43.1938 59.8744 43.2354 60.1834C43.2829 60.4924 43.3483 60.736 43.4315 60.9142C43.5207 61.0866 43.6396 61.2084 43.7882 61.2797C43.9368 61.351 44.1329 61.3866 44.3766 61.3866C44.5014 61.3866 44.5906 61.4223 44.6441 61.4936C44.7035 61.559 44.7332 61.6392 44.7332 61.7342C44.7332 61.8293 44.6916 61.9185 44.6084 62.0016C44.5252 62.0789 44.4182 62.1175 44.2874 62.1175C44.0854 62.1175 43.9041 62.0908 43.7436 62.0373C43.589 61.9779 43.4523 61.9006 43.3335 61.8056C43.2205 61.7045 43.1254 61.5916 43.0481 61.4669C42.9768 61.3361 42.9263 61.1995 42.8966 61.0569L43.0571 61.1103C42.9917 61.3777 42.8877 61.5857 42.745 61.7342C42.6083 61.8769 42.4448 61.9779 42.2546 62.0373C42.0644 62.0908 41.8623 62.1175 41.6484 62.1175C41.3868 62.1175 41.1729 62.0848 41.0064 62.0195C40.84 61.9541 40.7092 61.8561 40.6141 61.7253C40.525 61.5887 40.4655 61.4164 40.4358 61.2084H40.739C40.626 61.4639 40.5071 61.657 40.3823 61.7877C40.2575 61.9185 40.103 62.0076 39.9187 62.0551C39.7344 62.0967 39.4907 62.1175 39.1876 62.1175C39.039 62.1175 38.8785 62.0937 38.7061 62.0462C38.5397 61.9987 38.3941 61.9066 38.2693 61.7699C38.1445 61.6273 38.0702 61.4164 38.0464 61.1371L38.3139 61.0836C38.2128 61.3866 38.088 61.6124 37.9394 61.761C37.7967 61.9036 37.6244 61.9987 37.4223 62.0462C37.2202 62.0937 36.9824 62.1175 36.709 62.1175Z" fill="#47277E"/>
<path d="M45.3984 62.1175L45.4876 61.3866C45.7848 61.3866 46.0166 61.3658 46.183 61.3242C46.3495 61.2767 46.4743 61.1906 46.5575 61.0658C46.6466 60.935 46.718 60.7479 46.7715 60.5042C46.825 60.2606 46.8903 59.9427 46.9676 59.5505L47.663 59.6842C47.6393 59.7912 47.6125 59.91 47.5828 60.0408C47.5531 60.1715 47.5263 60.3022 47.5026 60.4329C47.4847 60.5577 47.4758 60.6677 47.4758 60.7627C47.4758 60.8519 47.4818 60.935 47.4936 61.0123C47.5055 61.0895 47.5501 61.1549 47.6274 61.2084C47.7047 61.2619 47.8354 61.3064 48.0197 61.3421C48.2039 61.3718 48.4684 61.3866 48.8132 61.3866C48.938 61.3866 49.0272 61.4223 49.0807 61.4936C49.1401 61.559 49.1698 61.6392 49.1698 61.7342C49.1698 61.8293 49.1282 61.9185 49.045 62.0016C48.9618 62.0789 48.8548 62.1175 48.724 62.1175C48.3615 62.1175 48.0732 62.0997 47.8592 62.064C47.6452 62.0224 47.4818 61.963 47.3688 61.8858C47.2618 61.8085 47.1846 61.7135 47.137 61.6006C47.0954 61.4817 47.0627 61.345 47.0389 61.1906L47.3064 61.2084C47.2113 61.3985 47.1073 61.553 46.9944 61.6719C46.8874 61.7907 46.7626 61.8828 46.6199 61.9482C46.4772 62.0135 46.3049 62.0581 46.1028 62.0819C45.9066 62.1056 45.6719 62.1175 45.3984 62.1175ZM47.6452 63.8021C47.5204 63.8021 47.4134 63.7575 47.3242 63.6684C47.241 63.5852 47.1994 63.4842 47.1994 63.3653C47.1994 63.2465 47.241 63.1425 47.3242 63.0534C47.4134 62.9643 47.5204 62.9197 47.6452 62.9197C47.7641 62.9197 47.8651 62.9643 47.9484 63.0534C48.0375 63.1425 48.0821 63.2465 48.0821 63.3653C48.0821 63.4842 48.0375 63.5852 47.9484 63.6684C47.8651 63.7575 47.7641 63.8021 47.6452 63.8021ZM46.4238 63.8021C46.2989 63.8021 46.1919 63.7575 46.1028 63.6684C46.0196 63.5852 45.978 63.4842 45.978 63.3653C45.978 63.2465 46.0196 63.1425 46.1028 63.0534C46.1919 62.9643 46.2989 62.9197 46.4238 62.9197C46.5426 62.9197 46.6437 62.9643 46.7269 63.0534C46.816 63.1425 46.8606 63.2465 46.8606 63.3653C46.8606 63.4842 46.816 63.5852 46.7269 63.6684C46.6437 63.7575 46.5426 63.8021 46.4238 63.8021Z" fill="#47277E"/>
<path d="M49.8389 62.1175L49.9192 61.3866C50.2282 61.3866 50.5314 61.3629 50.8286 61.3153C51.1258 61.2678 51.417 61.1995 51.7023 61.1103C51.9876 61.0212 52.261 60.9142 52.5226 60.7895C52.7901 60.6587 53.0427 60.5102 53.2804 60.3438C53.1259 60.2071 52.9476 60.0883 52.7455 59.9873C52.5434 59.8863 52.3205 59.809 52.0768 59.7555C51.839 59.6961 51.5864 59.6664 51.3189 59.6664C51.2238 59.6664 51.1347 59.6694 51.0515 59.6753C50.9683 59.6813 50.885 59.6932 50.8018 59.711C50.7186 59.7229 50.6235 59.7407 50.5165 59.7645L50.3739 59.0871C50.5344 59.0395 50.6948 59.0039 50.8553 58.9801C51.0158 58.9504 51.1703 58.9355 51.3189 58.9355C51.628 58.9355 51.9074 58.9742 52.157 59.0514C52.4067 59.1227 52.6325 59.2119 52.8346 59.3188C53.0427 59.4258 53.2358 59.5327 53.4142 59.6397C53.5984 59.7466 53.7767 59.8387 53.9491 59.916C54.1215 59.9873 54.2998 60.0229 54.4841 60.0229H54.6713L54.7337 60.6647C54.4781 60.6647 54.2433 60.7003 54.0294 60.7716C53.8154 60.8429 53.6044 60.935 53.3963 61.0479C53.1942 61.1549 52.9803 61.2708 52.7544 61.3956C52.5285 61.5144 52.2789 61.6303 52.0055 61.7432C51.732 61.8501 51.417 61.9392 51.0604 62.0106C50.7097 62.0819 50.3025 62.1175 49.8389 62.1175ZM52.3264 63.7308C52.2016 63.7308 52.0946 63.6862 52.0055 63.5971C51.9223 63.5139 51.8806 63.4129 51.8806 63.294C51.8806 63.1752 51.9223 63.0712 52.0055 62.9821C52.0946 62.8929 52.2016 62.8484 52.3264 62.8484C52.4453 62.8484 52.5464 62.8929 52.6296 62.9821C52.7187 63.0712 52.7633 63.1752 52.7633 63.294C52.7633 63.4129 52.7187 63.5139 52.6296 63.5971C52.5464 63.6862 52.4453 63.7308 52.3264 63.7308Z" fill="#47277E"/>
<path d="M56.7207 64.123L56.5603 63.3921C56.9169 63.3445 57.2438 63.2762 57.541 63.1871C57.8441 63.1039 58.1027 62.9821 58.3167 62.8216C58.5366 62.6612 58.706 62.4503 58.8249 62.1888C58.9438 61.9274 59.0032 61.6006 59.0032 61.2084C59.0032 60.8043 58.9289 60.4686 58.7803 60.2012C58.6317 59.9338 58.4385 59.8001 58.2008 59.8001C58.0759 59.8001 57.96 59.8477 57.8531 59.9427C57.7461 60.0378 57.6569 60.1655 57.5856 60.326C57.5202 60.4864 57.4875 60.6617 57.4875 60.8519C57.4875 60.9588 57.5113 61.0479 57.5588 61.1192C57.6064 61.1846 57.6747 61.2381 57.7639 61.2797C57.859 61.3153 57.9779 61.3421 58.1205 61.3599C58.2632 61.3777 58.4296 61.3866 58.6198 61.3866H60.501C60.6259 61.3866 60.715 61.4223 60.7685 61.4936C60.828 61.559 60.8577 61.6392 60.8577 61.7342C60.8577 61.8293 60.8161 61.9185 60.7329 62.0016C60.6496 62.0789 60.5427 62.1175 60.4119 62.1175H58.281C58.0135 62.1175 57.7639 62.0789 57.5321 62.0016C57.3062 61.9244 57.122 61.8056 56.9793 61.6451C56.8426 61.4787 56.7742 61.2619 56.7742 60.9945C56.7742 60.7449 56.8129 60.5072 56.8901 60.2814C56.9674 60.0497 57.0714 59.8447 57.2022 59.6664C57.3389 59.4822 57.4964 59.3366 57.6747 59.2297C57.859 59.1227 58.0581 59.0692 58.2721 59.0692C58.5455 59.0692 58.7892 59.1495 59.0032 59.3099C59.2172 59.4703 59.3866 59.714 59.5114 60.0408C59.6362 60.3616 59.6986 60.7687 59.6986 61.2619C59.6986 61.8145 59.5857 62.2898 59.3598 62.6879C59.1399 63.092 58.807 63.4129 58.3613 63.6506C57.9214 63.8882 57.3746 64.0457 56.7207 64.123Z" fill="#47277E"/>
<path d="M61.5235 62.1175L61.6037 61.3866C61.9426 61.3866 62.1803 61.354 62.317 61.2886C62.4537 61.2232 62.531 61.1074 62.5488 60.941C62.5726 60.7746 62.5785 60.5429 62.5667 60.2458L62.4151 55.709H63.1551L63.2978 60.2279C63.3096 60.531 63.3572 60.7687 63.4404 60.941C63.5296 61.1074 63.6484 61.2232 63.797 61.2886C63.9456 61.354 64.1091 61.3866 64.2874 61.3866C64.4122 61.3866 64.5014 61.4223 64.5549 61.4936C64.6143 61.559 64.644 61.6392 64.644 61.7342C64.644 61.8293 64.6024 61.9185 64.5192 62.0016C64.436 62.0789 64.329 62.1175 64.1982 62.1175C63.9486 62.1175 63.7406 62.0789 63.5741 62.0016C63.4137 61.9185 63.2859 61.8145 63.1908 61.6897C63.1016 61.559 63.0422 61.4223 63.0124 61.2797L63.1997 61.2975C63.1402 61.4758 63.0422 61.6273 62.9055 61.7521C62.7747 61.8709 62.5964 61.963 62.3705 62.0284C62.1446 62.0878 61.8623 62.1175 61.5235 62.1175Z" fill="#47277E"/>
<path d="M65.311 62.1175L65.3912 61.3866C65.73 61.3866 65.9678 61.354 66.1045 61.2886C66.2412 61.2232 66.3185 61.1074 66.3363 60.941C66.3601 60.7746 66.366 60.5429 66.3541 60.2458L66.1847 55.709H66.9069L67.0852 60.1655C67.0971 60.4805 67.0852 60.7598 67.0496 61.0034C67.0198 61.247 66.9426 61.452 66.8178 61.6184C66.6989 61.7848 66.5176 61.9095 66.2739 61.9927C66.0361 62.0759 65.7152 62.1175 65.311 62.1175Z" fill="#47277E"/>
<path d="M69.5617 62.0729L69.3834 55.709H70.1056L70.2839 62.0729H69.5617Z" fill="#47277E"/>
<path d="M79.0796 62.2601L79.3114 61.5292C80.0069 61.5292 80.6042 61.5114 81.1035 61.4758C81.6087 61.4401 82.0218 61.3837 82.3428 61.3064C82.6697 61.2232 82.9105 61.1133 83.065 60.9766C83.2255 60.834 83.3057 60.6617 83.3057 60.4597C83.3057 60.2339 83.2641 59.9724 83.1809 59.6753C83.0977 59.3782 82.9907 59.0603 82.8599 58.7216L83.5465 58.481C83.6237 58.6711 83.695 58.8761 83.7604 59.096C83.8318 59.3099 83.8912 59.5238 83.9387 59.7377C83.9863 59.9457 84.0101 60.1388 84.0101 60.3171C84.0101 60.6677 83.9298 60.9677 83.7693 61.2173C83.6089 61.4609 83.3414 61.66 82.9669 61.8145C82.5925 61.969 82.0872 62.0819 81.4512 62.1532C80.8212 62.2245 80.0307 62.2601 79.0796 62.2601ZM79.0796 62.2601C78.5506 62.2601 78.084 62.2245 77.6798 62.1532C77.2816 62.0878 76.9488 61.9838 76.6813 61.8412C76.4138 61.6986 76.2117 61.5144 76.075 61.2886C75.9383 61.0569 75.8699 60.7776 75.8699 60.4508C75.8699 60.3022 75.8818 60.1507 75.9056 59.9962C75.9294 59.8358 75.9591 59.6753 75.9948 59.5149C76.0364 59.3545 76.078 59.2 76.1196 59.0514L76.7883 59.2208C76.7645 59.3099 76.7377 59.4169 76.708 59.5416C76.6783 59.6605 76.6516 59.7823 76.6278 59.9071C76.61 60.0319 76.601 60.1448 76.601 60.2458C76.601 60.5548 76.6783 60.8043 76.8328 60.9945C76.9933 61.1787 77.2697 61.3153 77.662 61.4045C78.0543 61.4877 78.6041 61.5292 79.3114 61.5292L79.4898 61.9749L79.0796 62.2601ZM80.5686 58.4988C80.4438 58.4988 80.3368 58.4572 80.2476 58.374C80.1644 58.2849 80.1228 58.1809 80.1228 58.0621C80.1228 57.9432 80.1644 57.8392 80.2476 57.7501C80.3368 57.661 80.4438 57.6164 80.5686 57.6164C80.6875 57.6164 80.7885 57.661 80.8717 57.7501C80.9609 57.8392 81.0054 57.9432 81.0054 58.0621C81.0054 58.1809 80.9609 58.2849 80.8717 58.374C80.7885 58.4572 80.6875 58.4988 80.5686 58.4988ZM79.3471 58.4988C79.2223 58.4988 79.1153 58.4572 79.0261 58.374C78.9429 58.2849 78.9013 58.1809 78.9013 58.0621C78.9013 57.9432 78.9429 57.8392 79.0261 57.7501C79.1153 57.661 79.2223 57.6164 79.3471 57.6164C79.466 57.6164 79.567 57.661 79.6502 57.7501C79.7394 57.8392 79.784 57.9432 79.784 58.0621C79.784 58.1809 79.7394 58.2849 79.6502 58.374C79.567 58.4572 79.466 58.4988 79.3471 58.4988Z" fill="#47277E"/>
<path d="M88.1663 62.1175C87.6908 62.1175 87.3252 62.064 87.0697 61.9571C86.82 61.8501 86.6476 61.6837 86.5525 61.4579C86.4574 61.2321 86.4039 60.941 86.3921 60.5845L86.2137 55.709H86.9448L87.1231 60.2992C87.135 60.5904 87.1618 60.8162 87.2034 60.9766C87.2509 61.1311 87.352 61.2381 87.5065 61.2975C87.667 61.3569 87.9167 61.3866 88.2555 61.3866C88.3803 61.3866 88.4694 61.4223 88.5229 61.4936C88.5824 61.559 88.6121 61.6392 88.6121 61.7342C88.6121 61.8293 88.5705 61.9185 88.4873 62.0016C88.4041 62.0789 88.2971 62.1175 88.1663 62.1175Z" fill="#47277E"/>
<path d="M89.2809 62.1175L89.3701 61.3866C89.5365 61.3866 89.6762 61.351 89.7891 61.2797C89.902 61.2084 90.012 61.0895 90.119 60.9232C90.226 60.7568 90.3419 60.534 90.4667 60.2547C90.6391 59.8744 90.8085 59.5862 90.9749 59.3901C91.1473 59.194 91.3167 59.0603 91.4831 58.989C91.6555 58.9177 91.8249 58.8821 91.9913 58.8821C92.1934 58.8821 92.3806 58.9355 92.553 59.0425C92.7254 59.1435 92.877 59.2802 93.0077 59.4525C93.1385 59.6248 93.2395 59.815 93.3109 60.0229C93.3881 60.225 93.4268 60.427 93.4268 60.629C93.4268 60.9856 93.3643 61.2708 93.2395 61.4847C93.1147 61.6927 92.9542 61.8442 92.7581 61.9393C92.5679 62.0284 92.3688 62.0729 92.1607 62.0729C91.9765 62.0729 91.7387 62.0373 91.4474 61.966C91.1621 61.8947 90.7996 61.7135 90.3597 61.4223L90.7074 60.8608C90.9987 61.045 91.2602 61.1727 91.492 61.244C91.7298 61.3094 91.9259 61.3421 92.0805 61.3421C92.2528 61.3421 92.3896 61.3183 92.4906 61.2708C92.5917 61.2173 92.6659 61.143 92.7135 61.0479C92.761 60.9529 92.7848 60.8459 92.7848 60.7271C92.7848 60.5548 92.7432 60.3824 92.66 60.2101C92.5768 60.0378 92.4698 59.8952 92.339 59.7823C92.2142 59.6694 92.0805 59.6129 91.9378 59.6129C91.8308 59.6129 91.7268 59.6426 91.6258 59.7021C91.5247 59.7615 91.4207 59.8714 91.3137 60.0319C91.2067 60.1923 91.0849 60.424 90.9482 60.7271C90.8055 61.0479 90.6688 61.3035 90.538 61.4936C90.4132 61.6778 90.2854 61.8145 90.1547 61.9036C90.0239 61.9927 89.8872 62.0492 89.7445 62.0729C89.6078 62.1027 89.4533 62.1175 89.2809 62.1175Z" fill="#47277E"/>
<path d="M96.9966 61.3866C97.2938 61.3866 97.5286 61.3569 97.7009 61.2975C97.8792 61.2381 98.007 61.1519 98.0843 61.039C98.1675 60.9202 98.2091 60.7835 98.2091 60.629C98.2091 60.5102 98.1764 60.3676 98.111 60.2012C98.0516 60.0348 97.9684 59.8506 97.8614 59.6486C97.7544 59.4406 97.6296 59.2237 97.4869 58.9979C97.3502 58.7662 97.2016 58.5315 97.0412 58.2938L97.6563 57.8927C97.8882 58.2433 98.0902 58.5761 98.2626 58.891C98.435 59.2 98.5806 59.4911 98.6995 59.7645C98.8184 60.0319 98.9135 60.2844 98.9848 60.5221C99.068 60.7835 99.1601 60.9766 99.2612 61.1014C99.3682 61.2262 99.4781 61.3064 99.5911 61.3421C99.704 61.3718 99.808 61.3866 99.9031 61.3866C100.028 61.3866 100.12 61.4223 100.18 61.4936C100.239 61.559 100.269 61.6392 100.269 61.7342C100.269 61.8293 100.227 61.9185 100.144 62.0016C100.061 62.0789 99.9537 62.1175 99.8229 62.1175C99.6267 62.1175 99.4336 62.0819 99.2434 62.0106C99.0591 61.9333 98.8986 61.8115 98.7619 61.6451C98.6252 61.4728 98.5301 61.244 98.4766 60.9588L98.8332 60.6736C98.8332 60.9113 98.7827 61.143 98.6817 61.3688C98.5806 61.5887 98.3964 61.7699 98.1289 61.9125C97.8674 62.0551 97.4899 62.1264 96.9966 62.1264C96.7826 62.1264 96.5746 62.1086 96.3725 62.0729C96.1763 62.0373 95.995 61.9868 95.8286 61.9214C95.6622 61.8501 95.5165 61.7669 95.3917 61.6719L95.7484 61.0569C95.8672 61.1341 96.0337 61.2084 96.2476 61.2797C96.4616 61.351 96.7113 61.3866 96.9966 61.3866Z" fill="#47277E"/>
<path d="M106.619 62.1175C106.369 62.1175 106.14 62.1027 105.932 62.0729C105.724 62.0373 105.537 61.9749 105.371 61.8858C105.204 61.7966 105.064 61.6689 104.951 61.5025C104.839 61.3302 104.752 61.1044 104.693 60.8251L105.219 60.5132C105.296 60.7508 105.391 60.9321 105.504 61.0569C105.617 61.1816 105.769 61.2678 105.959 61.3153C106.155 61.3629 106.405 61.3866 106.708 61.3866C106.833 61.3866 106.922 61.4223 106.975 61.4936C107.035 61.559 107.065 61.6392 107.065 61.7342C107.065 61.8293 107.023 61.9185 106.94 62.0016C106.856 62.0789 106.75 62.1175 106.619 62.1175ZM100.939 62.1175L101.02 61.3866C101.329 61.3866 101.632 61.3629 101.929 61.3153C102.226 61.2678 102.517 61.1995 102.803 61.1103C103.088 61.0212 103.362 60.9142 103.623 60.7895C103.891 60.6587 104.143 60.5102 104.381 60.3438C104.226 60.2071 104.048 60.0883 103.846 59.9873C103.644 59.8863 103.421 59.809 103.177 59.7555C102.939 59.6961 102.687 59.6664 102.419 59.6664C102.324 59.6664 102.235 59.6694 102.152 59.6753C102.069 59.6813 101.985 59.6932 101.902 59.711C101.819 59.7229 101.724 59.7407 101.617 59.7645L101.474 59.0871C101.635 59.0395 101.795 59.0039 101.956 58.9801C102.116 58.9504 102.271 58.9355 102.419 58.9355C102.728 58.9355 103.008 58.9742 103.257 59.0514C103.507 59.1227 103.733 59.2119 103.935 59.3188C104.143 59.4258 104.336 59.5327 104.515 59.6397C104.699 59.7466 104.877 59.8387 105.05 59.916C105.222 59.9873 105.4 60.0229 105.585 60.0229H105.772L105.834 60.6647C105.579 60.6647 105.344 60.7003 105.13 60.7716C104.916 60.8429 104.705 60.935 104.497 61.0479C104.295 61.1549 104.081 61.2708 103.855 61.3956C103.629 61.5144 103.379 61.6303 103.106 61.7432C102.832 61.8501 102.517 61.9392 102.161 62.0106C101.81 62.0819 101.403 62.1175 100.939 62.1175ZM102.339 58.0175C102.214 58.0175 102.107 57.9759 102.018 57.8927C101.935 57.8036 101.893 57.6996 101.893 57.5808C101.893 57.4619 101.935 57.3579 102.018 57.2688C102.107 57.1797 102.214 57.1351 102.339 57.1351C102.458 57.1351 102.559 57.1797 102.642 57.2688C102.731 57.3579 102.776 57.4619 102.776 57.5808C102.776 57.6996 102.731 57.8036 102.642 57.8927C102.559 57.9759 102.458 58.0175 102.339 58.0175Z" fill="#47277E"/>
<path d="M107.731 62.1175L107.811 61.3866C108.15 61.3866 108.388 61.354 108.524 61.2886C108.661 61.2232 108.738 61.1074 108.756 60.941C108.78 60.7746 108.786 60.5429 108.774 60.2458L108.622 55.709H109.362L109.505 60.2279C109.517 60.531 109.564 60.7687 109.648 60.941C109.737 61.1074 109.856 61.2232 110.004 61.2886C110.153 61.354 110.316 61.3866 110.495 61.3866C110.619 61.3866 110.709 61.4223 110.762 61.4936C110.822 61.559 110.851 61.6392 110.851 61.7342C110.851 61.8293 110.81 61.9185 110.726 62.0016C110.643 62.0789 110.536 62.1175 110.405 62.1175C110.156 62.1175 109.948 62.0789 109.781 62.0016C109.621 61.9185 109.493 61.8145 109.398 61.6897C109.309 61.559 109.249 61.4223 109.22 61.2797L109.407 61.2975C109.347 61.4758 109.249 61.6273 109.113 61.7521C108.982 61.8709 108.804 61.963 108.578 62.0284C108.352 62.0878 108.07 62.1175 107.731 62.1175Z" fill="#47277E"/>
<path d="M111.518 62.1175L111.598 61.3866C111.937 61.3866 112.175 61.354 112.312 61.2886C112.448 61.2232 112.526 61.1074 112.544 60.941C112.567 60.7746 112.573 60.5429 112.561 60.2458L112.392 55.709H113.114L113.292 60.1655C113.304 60.4805 113.292 60.7598 113.257 61.0034C113.227 61.247 113.15 61.452 113.025 61.6184C112.906 61.7848 112.725 61.9095 112.481 61.9927C112.243 62.0759 111.922 62.1175 111.518 62.1175Z" fill="#47277E"/>
<path d="M118.838 62.0819C118.838 61.9392 118.85 61.7877 118.874 61.6273C118.904 61.4609 118.945 61.2856 118.999 61.1014C119.058 60.9113 119.129 60.7122 119.213 60.5042L119.855 60.7538C119.795 60.9202 119.742 61.0777 119.694 61.2262C119.653 61.3748 119.62 61.5144 119.596 61.6451C119.578 61.7758 119.569 61.9006 119.569 62.0195C119.569 62.3225 119.65 62.578 119.81 62.786C119.971 62.994 120.179 63.1485 120.434 63.2495C120.696 63.3564 120.975 63.4099 121.272 63.4099C121.855 63.4099 122.309 63.3059 122.636 63.0979C122.963 62.8959 123.192 62.6256 123.323 62.2869C123.454 61.9541 123.51 61.5887 123.492 61.1906L123.296 55.709H124.036L124.179 60.2279C124.191 60.531 124.238 60.7687 124.321 60.941C124.411 61.1074 124.529 61.2232 124.678 61.2886C124.827 61.354 124.99 61.3866 125.168 61.3866C125.293 61.3866 125.382 61.4223 125.436 61.4936C125.495 61.559 125.525 61.6392 125.525 61.7342C125.525 61.8293 125.483 61.9185 125.4 62.0016C125.317 62.0789 125.21 62.1175 125.079 62.1175C124.895 62.1175 124.737 62.0937 124.607 62.0462C124.476 61.9927 124.369 61.9274 124.286 61.8501C124.203 61.7669 124.137 61.6748 124.09 61.5738C124.042 61.4669 124.006 61.3599 123.983 61.2529L124.232 61.5025C124.208 61.8174 124.14 62.1294 124.027 62.4384C123.92 62.7533 123.754 63.0385 123.528 63.294C123.302 63.5495 122.999 63.7545 122.619 63.909C122.244 64.0635 121.78 64.1408 121.228 64.1408C120.919 64.1408 120.618 64.0932 120.327 63.9982C120.042 63.909 119.786 63.7753 119.56 63.5971C119.34 63.4188 119.165 63.2019 119.034 62.9464C118.904 62.6969 118.838 62.4087 118.838 62.0819Z" fill="#47277E"/>
<path d="M126.198 62.1175L126.287 61.3866C126.454 61.3866 126.584 61.351 126.679 61.2797C126.78 61.2084 126.876 61.0895 126.965 60.9232C127.06 60.7568 127.179 60.534 127.321 60.2547C127.464 59.9695 127.607 59.7377 127.749 59.5595C127.898 59.3753 128.041 59.2326 128.177 59.1316C128.32 59.0247 128.454 58.9504 128.578 58.9088C128.703 58.8672 128.819 58.8464 128.926 58.8464C129.122 58.8464 129.298 58.891 129.452 58.9801C129.607 59.0633 129.752 59.2089 129.889 59.4169C130.026 59.6189 130.165 59.8982 130.308 60.2547C130.445 60.5815 130.567 60.8281 130.674 60.9945C130.787 61.1549 130.902 61.2619 131.021 61.3153C131.146 61.3629 131.286 61.3866 131.44 61.3866C131.565 61.3866 131.654 61.4223 131.708 61.4936C131.767 61.559 131.797 61.6392 131.797 61.7342C131.797 61.8293 131.755 61.9185 131.672 62.0016C131.589 62.0789 131.482 62.1175 131.351 62.1175C131.119 62.1175 130.905 62.0789 130.709 62.0016C130.519 61.9244 130.359 61.8026 130.228 61.6362L130.353 61.449C130.287 61.6332 130.198 61.7848 130.085 61.9036C129.978 62.0165 129.856 62.0997 129.72 62.1532C129.583 62.2126 129.437 62.2423 129.283 62.2423C129.087 62.2423 128.885 62.2007 128.677 62.1175C128.474 62.0343 128.278 61.9155 128.088 61.761C127.898 61.6065 127.731 61.4253 127.589 61.2173C127.434 61.4906 127.286 61.6927 127.143 61.8234C127.006 61.9482 126.864 62.0284 126.715 62.064C126.566 62.0997 126.394 62.1175 126.198 62.1175ZM127.928 60.5399C128.029 60.7063 128.136 60.8519 128.249 60.9766C128.367 61.1014 128.486 61.2054 128.605 61.2886C128.724 61.3658 128.84 61.4253 128.953 61.4669C129.072 61.5025 129.179 61.5203 129.274 61.5203C129.482 61.5203 129.633 61.4461 129.729 61.2975C129.83 61.149 129.827 60.941 129.72 60.6736C129.666 60.5369 129.61 60.4032 129.55 60.2725C129.497 60.1418 129.437 60.0229 129.372 59.916C129.307 59.8031 129.232 59.7169 129.149 59.6575C129.066 59.5921 128.974 59.5595 128.873 59.5595C128.784 59.5595 128.688 59.5892 128.587 59.6486C128.492 59.708 128.388 59.809 128.275 59.9516C128.168 60.0942 128.052 60.2903 127.928 60.5399Z" fill="#47277E"/>
<path d="M132.467 62.1175L132.547 61.3866C132.856 61.3866 133.159 61.3629 133.457 61.3153C133.754 61.2678 134.045 61.1995 134.33 61.1103C134.616 61.0212 134.889 60.9142 135.151 60.7895C135.418 60.6587 135.671 60.5102 135.908 60.3438C135.754 60.2071 135.575 60.0883 135.373 59.9873C135.171 59.8863 134.948 59.809 134.705 59.7555C134.467 59.6961 134.214 59.6664 133.947 59.6664C133.852 59.6664 133.763 59.6694 133.679 59.6753C133.596 59.6813 133.513 59.6932 133.43 59.711C133.347 59.7229 133.251 59.7407 133.144 59.7645L133.002 59.0871C133.162 59.0395 133.323 59.0039 133.483 58.9801C133.644 58.9504 133.798 58.9355 133.947 58.9355C134.256 58.9355 134.535 58.9742 134.785 59.0514C135.035 59.1227 135.26 59.2119 135.463 59.3188C135.671 59.4258 135.864 59.5327 136.042 59.6397C136.226 59.7466 136.405 59.8387 136.577 59.916C136.749 59.9873 136.928 60.0229 137.112 60.0229H137.299L137.362 60.6647C137.106 60.6647 136.871 60.7003 136.657 60.7716C136.443 60.8429 136.232 60.935 136.024 61.0479C135.822 61.1549 135.608 61.2708 135.382 61.3956C135.156 61.5144 134.907 61.6303 134.633 61.7432C134.36 61.8501 134.045 61.9392 133.688 62.0106C133.338 62.0819 132.93 62.1175 132.467 62.1175ZM134.954 63.7308C134.83 63.7308 134.723 63.6862 134.633 63.5971C134.55 63.5139 134.509 63.4129 134.509 63.294C134.509 63.1752 134.55 63.0712 134.633 62.9821C134.723 62.8929 134.83 62.8484 134.954 62.8484C135.073 62.8484 135.174 62.8929 135.257 62.9821C135.347 63.0712 135.391 63.1752 135.391 63.294C135.391 63.4129 135.347 63.5139 135.257 63.5971C135.174 63.6862 135.073 63.7308 134.954 63.7308Z" fill="#47277E"/>
<path d="M146.787 62.1175C146.466 62.1175 146.18 62.0729 145.931 61.9838C145.687 61.8887 145.491 61.7313 145.342 61.5114C145.2 61.2856 145.119 60.9737 145.102 60.5756L144.959 57.4738H145.681L145.824 60.4151C145.842 60.6944 145.892 60.9053 145.975 61.0479C146.059 61.1846 146.174 61.2767 146.323 61.3242C146.478 61.3658 146.662 61.3866 146.876 61.3866C147.001 61.3866 147.09 61.4223 147.143 61.4936C147.203 61.559 147.232 61.6392 147.232 61.7342C147.232 61.8293 147.191 61.9185 147.108 62.0016C147.024 62.0789 146.917 62.1175 146.787 62.1175ZM145.44 61.1371C145.102 61.244 144.772 61.2975 144.451 61.2975C144.13 61.2975 143.839 61.25 143.577 61.1549C143.315 61.0598 143.107 60.9232 142.953 60.7449C142.798 60.5607 142.721 60.3408 142.721 60.0853C142.721 59.8358 142.783 59.6011 142.908 59.3812C143.039 59.1613 143.214 58.9653 143.434 58.7929C143.66 58.6206 143.919 58.478 144.21 58.3651C144.507 58.2463 144.822 58.1661 145.155 58.1245L145.28 58.8732C144.983 58.885 144.718 58.9266 144.486 58.9979C144.261 59.0633 144.067 59.1495 143.907 59.2564C143.752 59.3634 143.633 59.4792 143.55 59.604C143.467 59.7288 143.425 59.8506 143.425 59.9695C143.425 60.1002 143.473 60.2071 143.568 60.2903C143.663 60.3735 143.785 60.4389 143.934 60.4864C144.082 60.528 144.246 60.5548 144.424 60.5666C144.602 60.5726 144.775 60.5666 144.941 60.5488C145.108 60.525 145.25 60.4924 145.369 60.4508L145.44 61.1371ZM145.253 56.4488C145.128 56.4488 145.021 56.4072 144.932 56.324C144.849 56.2349 144.807 56.1309 144.807 56.0121C144.807 55.8932 144.849 55.7892 144.932 55.7001C145.021 55.611 145.128 55.5664 145.253 55.5664C145.372 55.5664 145.473 55.611 145.556 55.7001C145.645 55.7892 145.69 55.8932 145.69 56.0121C145.69 56.1309 145.645 56.2349 145.556 56.324C145.473 56.4072 145.372 56.4488 145.253 56.4488ZM144.032 56.4488C143.907 56.4488 143.8 56.4072 143.711 56.324C143.628 56.2349 143.586 56.1309 143.586 56.0121C143.586 55.8932 143.628 55.7892 143.711 55.7001C143.8 55.611 143.907 55.5664 144.032 55.5664C144.151 55.5664 144.252 55.611 144.335 55.7001C144.424 55.7892 144.469 55.8932 144.469 56.0121C144.469 56.1309 144.424 56.2349 144.335 56.324C144.252 56.4072 144.151 56.4488 144.032 56.4488Z" fill="#47277E"/>
<path d="M147.904 62.1175L147.993 61.3866C148.284 61.3866 148.516 61.3688 148.689 61.3332C148.861 61.2975 148.986 61.2262 149.063 61.1192C149.14 61.0063 149.179 60.84 149.179 60.6201C149.179 60.4716 149.155 60.2963 149.108 60.0942C149.06 59.8863 148.998 59.6664 148.92 59.4347C148.843 59.2029 148.76 58.9742 148.671 58.7484L149.393 58.481C149.47 58.6711 149.542 58.888 149.607 59.1316C149.678 59.3753 149.738 59.6159 149.785 59.8536C149.833 60.0913 149.857 60.2992 149.857 60.4775C149.857 60.7152 149.83 60.9261 149.776 61.1103C149.729 61.2886 149.655 61.4431 149.554 61.5738C149.452 61.6986 149.322 61.8026 149.161 61.8858C149.007 61.963 148.825 62.0224 148.617 62.064C148.409 62.0997 148.172 62.1175 147.904 62.1175ZM148.858 63.7753C148.733 63.7753 148.626 63.7308 148.537 63.6416C148.454 63.5585 148.412 63.4574 148.412 63.3386C148.412 63.2198 148.454 63.1158 148.537 63.0266C148.626 62.9375 148.733 62.8929 148.858 62.8929C148.977 62.8929 149.078 62.9375 149.161 63.0266C149.25 63.1158 149.295 63.2198 149.295 63.3386C149.295 63.4574 149.25 63.5585 149.161 63.6416C149.078 63.7308 148.977 63.7753 148.858 63.7753Z" fill="#47277E"/>
<path d="M152.233 62.0729L152.055 55.709H152.777L152.955 62.0729H152.233Z" fill="#47277E"/>
<path d="M155.169 64.123L155.009 63.3921C155.365 63.3445 155.692 63.2762 155.989 63.1871C156.292 63.1039 156.551 62.9821 156.765 62.8216C156.985 62.6612 157.154 62.4503 157.273 62.1888C157.392 61.9274 157.451 61.6006 157.451 61.2084C157.451 60.8043 157.377 60.4686 157.229 60.2012C157.08 59.9338 156.887 59.8001 156.649 59.8001C156.524 59.8001 156.408 59.8477 156.301 59.9427C156.194 60.0378 156.105 60.1655 156.034 60.326C155.968 60.4864 155.936 60.6617 155.936 60.8519C155.936 60.9588 155.96 61.0479 156.007 61.1192C156.055 61.1846 156.123 61.2381 156.212 61.2797C156.307 61.3153 156.426 61.3421 156.569 61.3599C156.711 61.3777 156.878 61.3866 157.068 61.3866H158.949C159.074 61.3866 159.163 61.4223 159.217 61.4936C159.276 61.559 159.306 61.6392 159.306 61.7342C159.306 61.8293 159.264 61.9185 159.181 62.0016C159.098 62.0789 158.991 62.1175 158.86 62.1175H156.729C156.462 62.1175 156.212 62.0789 155.98 62.0016C155.754 61.9244 155.57 61.8056 155.428 61.6451C155.291 61.4787 155.223 61.2619 155.223 60.9945C155.223 60.7449 155.261 60.5072 155.338 60.2814C155.416 60.0497 155.52 59.8447 155.65 59.6664C155.787 59.4822 155.945 59.3366 156.123 59.2297C156.307 59.1227 156.506 59.0692 156.72 59.0692C156.994 59.0692 157.237 59.1495 157.451 59.3099C157.665 59.4703 157.835 59.714 157.96 60.0408C158.084 60.3616 158.147 60.7687 158.147 61.2619C158.147 61.8145 158.034 62.2898 157.808 62.6879C157.588 63.092 157.255 63.4129 156.81 63.6506C156.37 63.8882 155.823 64.0457 155.169 64.123Z" fill="#47277E"/>
<path d="M159.972 62.1175L160.061 61.3866C160.352 61.3866 160.584 61.3688 160.756 61.3332C160.929 61.2975 161.054 61.2262 161.131 61.1192C161.208 61.0063 161.247 60.84 161.247 60.6201C161.247 60.4716 161.223 60.2963 161.175 60.0942C161.128 59.8863 161.065 59.6664 160.988 59.4347C160.911 59.2029 160.828 58.9742 160.739 58.7484L161.461 58.481C161.538 58.6711 161.609 58.888 161.675 59.1316C161.746 59.3753 161.805 59.6159 161.853 59.8536C161.901 60.0913 161.924 60.2992 161.924 60.4775C161.924 60.7152 161.898 60.9261 161.844 61.1103C161.797 61.2886 161.722 61.4431 161.621 61.5738C161.52 61.6986 161.389 61.8026 161.229 61.8858C161.074 61.963 160.893 62.0224 160.685 62.064C160.477 62.0997 160.239 62.1175 159.972 62.1175ZM160.926 63.7753C160.801 63.7753 160.694 63.7308 160.605 63.6416C160.522 63.5585 160.48 63.4574 160.48 63.3386C160.48 63.2198 160.522 63.1158 160.605 63.0266C160.694 62.9375 160.801 62.8929 160.926 62.8929C161.045 62.8929 161.146 62.9375 161.229 63.0266C161.318 63.1158 161.363 63.2198 161.363 63.3386C161.363 63.4574 161.318 63.5585 161.229 63.6416C161.146 63.7308 161.045 63.7753 160.926 63.7753Z" fill="#47277E"/>
</svg>
