<svg width="107" height="108" viewBox="0 0 107 108" fill="none" xmlns="http://www.w3.org/2000/svg">
<circle opacity="0.5" cx="53.7277" cy="54.0007" r="53.2722" fill="#FE7F06" fill-opacity="0.1"/>
<g clip-path="url(#clip0_2_6168)">
<path d="M67.7278 44.7954H65.3945V40.1926C65.3945 33.8407 60.1677 28.6855 53.7276 28.6855C47.2874 28.6855 42.0607 33.8407 42.0607 40.1926V44.7954H39.7273C37.1606 44.7954 35.0605 46.8667 35.0605 49.3983V72.4124C35.0605 74.944 37.1606 77.0152 39.7273 77.0152H67.7278C70.2945 77.0152 72.3946 74.944 72.3946 72.4124V49.3983C72.3946 46.8667 70.2945 44.7954 67.7278 44.7954ZM53.7276 65.5082C51.1609 65.5082 49.0608 63.4369 49.0608 60.9053C49.0608 58.3738 51.1609 56.3025 53.7276 56.3025C56.2943 56.3025 58.3943 58.3738 58.3943 60.9053C58.3943 63.4369 56.2943 65.5082 53.7276 65.5082ZM46.7274 44.7954V40.1926C46.7274 36.3723 49.8542 33.2884 53.7276 33.2884C57.601 33.2884 60.7277 36.3723 60.7277 40.1926V44.7954H46.7274Z" fill="#FE7F06"/>
</g>
<defs>
<clipPath id="clip0_2_6168">
<rect width="56.0011" height="55.2339" fill="white" transform="translate(25.7271 26.3843)"/>
</clipPath>
</defs>
</svg>
