<svg width="80" height="80" viewBox="0 0 80 80" fill="none" xmlns="http://www.w3.org/2000/svg">
<path d="M40 80C62.0914 80 80 62.0914 80 40C80 17.9086 62.0914 0 40 0C17.9086 0 0 17.9086 0 40C0 62.0914 17.9086 80 40 80Z" fill="#FE7F06" fill-opacity="0.2"/>
<path d="M40.0003 74.0627C21.2179 74.0627 5.9375 58.7822 5.9375 39.9998C5.93724 21.2175 21.2177 5.93701 40.0003 5.93701C58.7827 5.93701 74.0632 21.2175 74.0632 39.9998C74.0629 58.7822 58.7824 74.0627 40.0003 74.0627Z" fill="#FE7F06"/>
<path d="M54.5836 34.759L54.5841 34.7585C55.8053 33.5511 55.8053 31.606 54.5841 30.3986C53.3724 29.2005 51.4346 29.2005 50.2228 30.3986L35.3525 45.1013L30.7772 40.5775C29.5654 39.3794 27.6276 39.3794 26.4159 40.5775C25.1947 41.7849 25.1947 43.73 26.4159 44.9374L33.1558 51.6014C34.3675 52.7995 36.3215 52.7995 37.5332 51.6014L54.5836 34.759Z" fill="white" stroke="white" stroke-width="3"/>
</svg>
