<svg width="60" height="60" viewBox="0 0 60 60" fill="none" xmlns="http://www.w3.org/2000/svg">
<path d="M0 30C0 13.4315 13.4315 0 30 0H60V30C60 46.5685 46.5685 60 30 60C13.4315 60 0 46.5685 0 30Z" fill="#FE7E05"/>
<path d="M25.5449 30.875C25.1081 30.875 24.7539 31.2292 24.7539 31.666V33.248C24.7539 33.6849 25.1081 34.0391 25.5449 34.0391C25.9818 34.0391 26.3359 33.6849 26.3359 33.248V31.666C26.3359 31.2292 25.9818 30.875 25.5449 30.875Z" fill="white"/>
<path d="M33.4551 34.0391C33.8919 34.0391 34.2461 33.6849 34.2461 33.248V31.666C34.2461 31.2292 33.8919 30.875 33.4551 30.875C33.0182 30.875 32.6641 31.2292 32.6641 31.666V33.248C32.6641 33.6849 33.0182 34.0391 33.4551 34.0391Z" fill="white"/>
<path d="M30.3457 20.5898H38.9941C39.431 20.5898 39.7852 20.2357 39.7852 19.7988C39.7852 19.362 39.431 19.0078 38.9941 19.0078H30.3457C29.9089 19.0078 29.5547 19.362 29.5547 19.7988C29.5547 20.2357 29.9089 20.5898 30.3457 20.5898Z" fill="white"/>
<path d="M43 24.2812V18.4277C43 16.5377 41.4623 15 39.5723 15H29.7637C27.8736 15 26.3359 16.5377 26.3359 18.4277V24.5449H25.2812C22.39 24.5449 19.9652 26.5789 19.3616 29.291H19.2168V24.4089C20.1375 24.0823 20.7988 23.2031 20.7988 22.1719C20.7988 20.8634 19.7343 19.7988 18.4258 19.7988C17.1173 19.7988 16.0527 20.8634 16.0527 22.1719C16.0527 23.2031 16.7141 24.0823 17.6348 24.4089V29.4092C16.6868 29.7204 16 30.6133 16 31.6641V34.8281C16 36.1366 17.0645 37.2012 18.373 37.2012H19.3501C19.9338 39.9396 22.3713 42 25.2812 42H33.7188C36.6287 42 39.0662 39.9396 39.6499 37.2012H40.627C41.9355 37.2012 43 36.1366 43 34.8281V31.6641C43 30.3556 41.9355 29.291 40.627 29.291H39.6381C39.5152 28.7384 39.3157 28.2059 39.045 27.709H39.5723C41.4623 27.709 43 26.1713 43 24.2812ZM27.918 18.4277C27.918 17.41 28.746 16.582 29.7637 16.582H39.5723C40.59 16.582 41.418 17.41 41.418 18.4277V24.2812C41.418 25.299 40.59 26.127 39.5723 26.127H30.291C30.1682 26.127 30.0471 26.1555 29.9373 26.2104L27.918 27.2201V18.4277ZM18.4258 21.3809C18.8619 21.3809 19.2168 21.7357 19.2168 22.1719C19.2168 22.608 18.8619 22.9629 18.4258 22.9629C17.9896 22.9629 17.6348 22.608 17.6348 22.1719C17.6348 21.7357 17.9896 21.3809 18.4258 21.3809ZM17.582 34.8281V31.6641C17.582 31.2279 17.9369 30.873 18.373 30.873H19.2168V35.6191H18.373C17.9369 35.6191 17.582 35.2643 17.582 34.8281ZM41.418 31.6641V34.8281C41.418 35.2643 41.0631 35.6191 40.627 35.6191H39.7832V30.873H40.627C41.0631 30.873 41.418 31.2279 41.418 31.6641ZM38.2012 30.6094V35.9355C38.2012 38.4072 36.1904 40.418 33.7188 40.418H25.2812C22.8096 40.418 20.7988 38.4072 20.7988 35.9355V30.6094C20.7988 28.1378 22.8096 26.127 25.2812 26.127H26.3359V28.5C26.3359 29.087 26.9551 29.4703 27.4807 29.2075L30.4777 27.709H37.135C37.8225 28.5181 38.2012 29.5444 38.2012 30.6094Z" fill="white"/>
<path d="M30.3457 23.7539H38.9941C39.431 23.7539 39.7852 23.3997 39.7852 22.9629C39.7852 22.526 39.431 22.1719 38.9941 22.1719H30.3457C29.9089 22.1719 29.5547 22.526 29.5547 22.9629C29.5547 23.3997 29.9089 23.7539 30.3457 23.7539Z" fill="white"/>
<path d="M27.125 36.4082C27.125 36.8451 27.4792 37.1992 27.916 37.1992H31.0801C31.5169 37.1992 31.8711 36.8451 31.8711 36.4082C31.8711 35.9714 31.5169 35.6172 31.0801 35.6172H27.916C27.4792 35.6172 27.125 35.9714 27.125 36.4082Z" fill="white"/>
</svg>
