<svg width="13" height="7" viewBox="0 0 13 7" fill="none" xmlns="http://www.w3.org/2000/svg">
<path d="M11.7812 0H1.21875C0.54666 0 0 0.523299 0 1.16667V5.83333C0 6.4767 0.54666 7 1.21875 7H11.7812C12.4533 7 13 6.4767 13 5.83333V1.16667C13 0.523299 12.4533 0 11.7812 0ZM1.45691 1.90799C1.36576 1.7116 1.45818 1.48191 1.66309 1.39465C1.86799 1.3074 2.10818 1.39587 2.19934 1.59201L2.64062 2.5426L3.08191 1.59201C3.17307 1.39587 3.41326 1.3074 3.61816 1.39465C3.82307 1.48191 3.91549 1.7116 3.82434 1.90799L3.08521 3.5L3.82434 5.09201C3.94438 5.35065 3.74469 5.63889 3.45338 5.63889C3.29773 5.63889 3.1492 5.55285 3.08191 5.40799L2.64062 4.45764L2.19934 5.40799C2.13205 5.55285 1.98352 5.63889 1.82787 5.63889C1.53674 5.63889 1.33682 5.35075 1.45691 5.09201L2.19603 3.5L1.45691 1.90799ZM6.5 3.88889H6.29688C6.07242 3.88889 5.89062 3.71486 5.89062 3.5C5.89062 3.28514 6.07242 3.11111 6.29688 3.11111H6.5C6.61197 3.11111 6.70312 3.02385 6.70312 2.91667V2.33333C6.70312 2.22615 6.61197 2.13889 6.5 2.13889H5.6875C5.46305 2.13889 5.28125 1.96486 5.28125 1.75C5.28125 1.53514 5.46305 1.36111 5.6875 1.36111H6.5C7.06012 1.36111 7.51562 1.79715 7.51562 2.33333C7.51562 2.90041 7.5642 3.17956 7.31199 3.5C7.43996 3.6626 7.51562 3.86458 7.51562 4.08333V4.66667C7.51562 5.20285 7.06012 5.63889 6.5 5.63889H5.6875C5.46305 5.63889 5.28125 5.46486 5.28125 5.25C5.28125 5.03514 5.46305 4.86111 5.6875 4.86111H6.5C6.61197 4.86111 6.70312 4.77385 6.70312 4.66667V4.08333C6.70312 3.97615 6.61197 3.88889 6.5 3.88889ZM4.875 3.88889H4.26562C4.04117 3.88889 3.85938 3.71486 3.85938 3.5C3.85938 3.28514 4.04117 3.11111 4.26562 3.11111H4.875C5.09945 3.11111 5.28125 3.28514 5.28125 3.5C5.28125 3.71486 5.09945 3.88889 4.875 3.88889ZM9.95312 4.86111C10.1776 4.86111 10.3594 5.03514 10.3594 5.25C10.3594 5.46486 10.1776 5.63889 9.95312 5.63889H8.32812C8.00452 5.63889 7.80995 5.29244 7.99018 5.03417L9.27723 3.18621C9.45369 2.93295 9.54688 2.63788 9.54688 2.33333C9.54688 2.22615 9.45572 2.13889 9.34375 2.13889H8.9375C8.82553 2.13889 8.73438 2.22615 8.73438 2.33333C8.73438 2.54819 8.55258 2.72222 8.32812 2.72222C8.10367 2.72222 7.92188 2.54819 7.92188 2.33333C7.92188 1.79715 8.37738 1.36111 8.9375 1.36111H9.34375C9.90387 1.36111 10.3594 1.79715 10.3594 2.33333C10.3594 2.79198 10.219 3.23604 9.95312 3.61764L9.08731 4.86111H9.95312ZM11.5781 5.25C11.5781 5.46486 11.3963 5.63889 11.1719 5.63889C10.9474 5.63889 10.7656 5.46486 10.7656 5.25V1.75C10.7656 1.53514 10.9474 1.36111 11.1719 1.36111C11.3963 1.36111 11.5781 1.53514 11.5781 1.75V5.25Z" fill="#FE7F06"/>
</svg>
