<svg width="215" height="23" viewBox="0 0 215 23" fill="none" xmlns="http://www.w3.org/2000/svg">
<g clip-path="url(#clip0_16_2705)">
<path d="M0 -14.6362H5.1875V37.6365H0V-14.6362Z" fill="black" fill-opacity="0.65"/>
<path d="M41.5 -14.6362H51.875V37.6365H41.5V-14.6362Z" fill="black" fill-opacity="0.65"/>
<path d="M54.0625 -14.6362H59.25V37.6365H54.0625V-14.6362Z" fill="black" fill-opacity="0.65"/>
<path d="M63.4375 -14.6362H68.625V37.6365H63.4375V-14.6362Z" fill="black" fill-opacity="0.65"/>
<path d="M73 -15H81V38H73V-15Z" fill="black" fill-opacity="0.65"/>
<path d="M10.375 -14.6362H25.9375V37.6365H10.375V-14.6362Z" fill="black" fill-opacity="0.65"/>
<path d="M31.125 -14.6362H36.3125V37.6365H31.125V-14.6362Z" fill="black" fill-opacity="0.65"/>
<path d="M83 -14.6362H88.1875V37.6365H83V-14.6362Z" fill="black" fill-opacity="0.65"/>
<path d="M124.5 -14.6362H134.875V37.6365H124.5V-14.6362Z" fill="black" fill-opacity="0.65"/>
<path d="M137.062 -14.6362H142.25V37.6365H137.062V-14.6362Z" fill="black" fill-opacity="0.65"/>
<path d="M146.438 -14.6362H151.625V37.6365H146.438V-14.6362Z" fill="black" fill-opacity="0.65"/>
<path d="M156 -15H164V38H156V-15Z" fill="black" fill-opacity="0.65"/>
<path d="M93.375 -14.6362H108.938V37.6365H93.375V-14.6362Z" fill="black" fill-opacity="0.65"/>
<path d="M114.125 -14.6362H119.312V37.6365H114.125V-14.6362Z" fill="black" fill-opacity="0.65"/>
<path d="M167 -14.6362H172.188V37.6365H167V-14.6362Z" fill="black" fill-opacity="0.65"/>
<path d="M208.5 -14.6362H218.875V37.6365H208.5V-14.6362Z" fill="black" fill-opacity="0.65"/>
<path d="M177.375 -14.6362H192.938V37.6365H177.375V-14.6362Z" fill="black" fill-opacity="0.65"/>
<path d="M198.125 -14.6362H203.312V37.6365H198.125V-14.6362Z" fill="black" fill-opacity="0.65"/>
</g>
<defs>
<clipPath id="clip0_16_2705">
<rect width="215" height="23" fill="white"/>
</clipPath>
</defs>
</svg>
