<svg width="22" height="16" viewBox="0 0 22 16" fill="none" xmlns="http://www.w3.org/2000/svg">
<path d="M19.6662 0.200195H2.33303C1.37987 0.200195 0.599609 0.980455 0.599609 1.93361V14.0668C0.599609 15.0199 1.37987 15.8002 2.33303 15.8002H19.6662C20.6193 15.8002 21.3996 15.0199 21.3996 14.0668V1.93361C21.3996 0.980455 20.6193 0.200195 19.6662 0.200195ZM6.66619 3.66677C7.62455 3.66677 8.39961 4.44287 8.39961 5.40019C8.39961 6.35751 7.62455 7.13361 6.66619 7.13361C5.70809 7.13361 4.93303 6.35751 4.93303 5.40019C4.93303 4.44287 5.70809 3.66677 6.66619 3.66677ZM10.133 12.3336H3.19961V10.601C3.19961 9.64365 3.97649 8.86781 4.93303 8.86781L8.39961 8.86677C9.35771 8.86677 10.133 9.64287 10.133 10.6002V12.3336ZM18.7996 12.3336H11.8662V10.6002H18.7996V12.3336ZM18.7996 8.86677H11.8662V7.13361H18.7996V8.86677ZM18.7996 5.40019H10.133V3.66677H18.7996V5.40019Z" fill="#FE7F06"/>
</svg>
