<svg width="17" height="22" viewBox="0 0 17 22" fill="none" xmlns="http://www.w3.org/2000/svg">
<path d="M2.5 7.81836H3.5V5.81836C3.5 3.05836 5.74 0.818359 8.5 0.818359C11.26 0.818359 13.5 3.05836 13.5 5.81836V7.81836H14.5C15.6 7.81836 16.5 8.71836 16.5 9.81836V19.8184C16.5 20.9184 15.6 21.8184 14.5 21.8184H2.5C1.4 21.8184 0.5 20.9184 0.5 19.8184V9.81836C0.5 8.71836 1.4 7.81836 2.5 7.81836ZM8.5 16.8184C9.6 16.8184 10.5 15.9184 10.5 14.8184C10.5 13.7184 9.6 12.8184 8.5 12.8184C7.4 12.8184 6.5 13.7184 6.5 14.8184C6.5 15.9184 7.4 16.8184 8.5 16.8184ZM11.5 7.81836V5.81836C11.5 4.15836 10.16 2.81836 8.5 2.81836C6.84 2.81836 5.5 4.15836 5.5 5.81836V7.81836H11.5Z" fill="#48267F"/>
</svg>
