<svg width="375" height="281" viewBox="0 0 375 281" fill="none" xmlns="http://www.w3.org/2000/svg">
<g filter="url(#filter0_d_56_18879)">
<path fill-rule="evenodd" clip-rule="evenodd" d="M374.999 160C374.999 160 374.999 160.001 374.999 160.001L374.999 163.834L374.999 227.328C374.999 237.422 374.999 242.469 371.913 245.893C368.827 249.317 363.896 249.83 354.036 250.857C292.629 257.25 200.341 262.31 188.716 262.935C188.12 262.967 187.821 262.983 187.499 262.983C187.177 262.983 186.878 262.967 186.282 262.935L186.282 262.935C174.657 262.31 82.3694 257.25 20.9617 250.857C11.1015 249.83 6.17142 249.317 3.08521 245.893C-0.00100537 242.469 -0.00100495 237.422 -0.00100411 227.328L-0.000998506 160L-0.0010137 -24L374.999 -24L374.999 159.304C374.999 159.534 374.999 159.766 374.999 160Z" fill="white"/>
<path fill-rule="evenodd" clip-rule="evenodd" d="M374.999 160C374.999 160 374.999 160.001 374.999 160.001L374.999 163.834L374.999 227.328C374.999 237.422 374.999 242.469 371.913 245.893C368.827 249.317 363.896 249.83 354.036 250.857C292.629 257.25 200.341 262.31 188.716 262.935C188.12 262.967 187.821 262.983 187.499 262.983C187.177 262.983 186.878 262.967 186.282 262.935L186.282 262.935C174.657 262.31 82.3694 257.25 20.9617 250.857C11.1015 249.83 6.17142 249.317 3.08521 245.893C-0.00100537 242.469 -0.00100495 237.422 -0.00100411 227.328L-0.000998506 160L-0.0010137 -24L374.999 -24L374.999 159.304C374.999 159.534 374.999 159.766 374.999 160Z" fill="url(#paint0_linear_56_18879)"/>
</g>
<mask id="mask0_56_18879" style="mask-type:alpha" maskUnits="userSpaceOnUse" x="-1" y="15" width="376" height="249">
<path d="M374.999 159.997C374.999 159.997 374.999 159.998 374.999 159.998V227.351C374.999 237.441 374.999 242.486 371.905 245.91C368.812 249.334 363.871 249.848 353.989 250.877C292.596 257.267 200.383 262.325 188.725 262.952C188.124 262.984 187.823 263 187.499 263C187.175 263 186.874 262.984 186.273 262.952C174.615 262.325 82.4025 257.267 21.01 250.877C11.1278 249.848 6.18673 249.334 3.09329 245.91C-0.000123266 242.486 -0.000122912 237.441 -0.000122069 227.351L-0.000116447 159.997C-0.000116379 159.189 -0.000116314 158.41 0.00116891 157.658L0.00118082 15.0001L375 15.0002L375 159.997H374.999Z" fill="url(#paint1_linear_56_18879)"/>
</mask>
<g mask="url(#mask0_56_18879)">
<g style="mix-blend-mode:multiply">
<path fill-rule="evenodd" clip-rule="evenodd" d="M270.784 127.354L296.9 127.354L307.943 83.3366H298.596L289.827 118.287H277.922L266.309 70.1754H256.982L270.784 127.354ZM335.42 127.354L361.537 127.354L372.58 83.3367L363.232 83.3367L354.464 118.287L342.559 118.287L330.946 70.1754L321.619 70.1754L335.42 127.354ZM380.319 71.6378H354.203L343.16 115.655H352.507L361.276 80.7044H373.181L384.794 128.816H394.121L380.319 71.6378ZM289.566 71.6378H315.683L329.484 128.816H320.157L308.544 80.7044H296.639L287.871 115.655H278.523L289.566 71.6378ZM224.931 71.6378H251.047L264.849 128.816H255.522L243.908 80.7044H232.003L223.235 115.655H213.887L224.931 71.6378ZM206.148 127.354L232.264 127.354L243.307 83.3367L233.96 83.3367L225.191 118.287L213.286 118.287L201.673 70.1754L192.346 70.1754L206.148 127.354ZM160.294 71.6378H186.41L200.212 128.816H190.885L179.272 80.7044H167.367L158.599 115.655H149.251L160.294 71.6378ZM141.511 127.354L167.628 127.354L178.671 83.3366H169.323L160.555 118.287H148.65L137.037 70.1754H127.71L141.511 127.354ZM95.6581 71.6378H121.774L135.576 128.816H126.249L114.636 80.7044H102.731L93.9625 115.655H84.6149L95.6581 71.6378ZM76.8753 127.354L102.992 127.354L114.035 83.3367L104.687 83.3367L95.9188 118.287L84.0139 118.287L72.4007 70.1754L63.0737 70.1754L76.8753 127.354ZM31.0215 71.6378H57.1379L70.9396 128.816H61.6126L49.9994 80.7044H38.0945L29.326 115.655H19.9784L31.0215 71.6378ZM12.2388 127.354L38.3552 127.354L49.3983 83.3366H40.0508L31.2823 118.287H19.3773L7.76422 70.1754H-1.56281L12.2388 127.354ZM354.203 199.594H380.32L394.121 256.772H384.794L373.181 208.66H361.276L352.508 243.611H343.16L354.203 199.594ZM335.42 255.311H361.537L372.58 211.294H363.232L354.464 246.244H342.559L330.946 198.132H321.619L335.42 255.311ZM289.566 199.594H315.683L329.484 256.772H320.157L308.544 208.66H296.639L287.871 243.611H278.523L289.566 199.594ZM270.784 255.31H296.9L307.943 211.293H298.596L289.827 246.243H277.922L266.309 198.131H256.982L270.784 255.31ZM224.931 199.594H251.047L264.849 256.772H255.522L243.909 208.66H232.004L223.235 243.611H213.888L224.931 199.594ZM206.148 255.311H232.264L243.308 211.294H233.96L225.191 246.244H213.287L201.673 198.132H192.346L206.148 255.311ZM160.294 199.594H186.41L200.212 256.772H190.885L179.272 208.66H167.367L158.599 243.611H149.251L160.294 199.594ZM141.511 255.31H167.628L178.671 211.293H169.323L160.555 246.243H148.65L137.037 198.131H127.71L141.511 255.31ZM95.6583 199.594H121.775L135.576 256.772H126.249L114.636 208.66H102.731L93.9627 243.611H84.6151L95.6583 199.594ZM76.8755 255.311H102.992L114.035 211.294H104.687L95.919 246.244H84.0141L72.4009 198.132H63.0739L76.8755 255.311ZM31.0215 199.594H57.1379L70.9396 256.772H61.6126L49.9994 208.66H38.0945L29.326 243.611H19.9784L31.0215 199.594ZM12.2388 255.31H38.3552L49.3983 211.293H40.0508L31.2823 246.243H19.3773L7.76422 198.131H-1.56281L12.2388 255.31ZM335.778 135.543H361.895L375.696 192.721H366.369L354.756 144.61H342.851L334.083 179.56H324.735L335.778 135.543ZM316.995 191.259H343.112L354.155 147.242L344.807 147.242L336.039 182.192H324.134L312.521 134.081H303.194L316.995 191.259ZM271.141 135.543H297.257L311.059 192.721H301.732L290.119 144.61H278.214L269.445 179.56H260.098L271.141 135.543ZM252.359 191.259H278.475L289.518 147.242H280.171L271.402 182.192H259.497L247.884 134.081H238.557L252.359 191.259ZM206.506 135.543H232.622L246.424 192.721H237.097L225.484 144.61H213.579L204.81 179.56H195.463L206.506 135.543ZM187.723 191.259H213.839L224.883 147.242L215.535 147.242L206.766 182.192H194.862L183.248 134.081H173.921L187.723 191.259ZM141.868 135.543H167.985L181.786 192.721H172.459L160.846 144.61H148.941L140.173 179.56H130.825L141.868 135.543ZM123.086 191.259H149.203L160.246 147.242H150.898L142.13 182.192H130.225L118.612 134.081H109.285L123.086 191.259ZM77.2332 135.543H103.35L117.151 192.721H107.824L96.2111 144.61H84.3062L75.5377 179.56H66.1901L77.2332 135.543ZM58.4505 191.259H84.5669L95.61 147.242L86.2625 147.242L77.494 182.192H65.5891L53.9759 134.081H44.6489L58.4505 191.259ZM12.5958 135.543H38.7122L52.5138 192.721H43.1868L31.5736 144.61H19.6687L10.9002 179.56H1.55264L12.5958 135.543ZM-6.18597 191.259H19.9304L30.9735 147.242H21.6259L12.8575 182.192H0.952545L-10.6606 134.081H-19.9876L-6.18597 191.259ZM335.778 263.646H361.895L375.696 320.824H366.369L354.756 272.712H342.851L334.083 307.663H324.735L335.778 263.646ZM316.995 319.361H343.112L354.155 275.344H344.807L336.039 310.295H324.134L312.521 262.183H303.194L316.995 319.361ZM271.141 263.646H297.257L311.059 320.824H301.732L290.119 272.712H278.214L269.445 307.663H260.098L271.141 263.646ZM252.359 319.361H278.475L289.518 275.344H280.171L271.402 310.295H259.497L247.884 262.183H238.557L252.359 319.361ZM206.506 263.646H232.622L246.424 320.824H237.097L225.484 272.712H213.579L204.81 307.663H195.463L206.506 263.646ZM187.723 319.361H213.839L224.883 275.344H215.535L206.766 310.295H194.862L183.248 262.183H173.921L187.723 319.361ZM141.868 263.646H167.985L181.786 320.824H172.459L160.846 272.712H148.941L140.173 307.663H130.825L141.868 263.646ZM123.086 319.361H149.203L160.246 275.344H150.898L142.13 310.295H130.225L118.612 262.183H109.285L123.086 319.361ZM77.2332 263.646H103.35L117.151 320.824H107.824L96.2111 272.712H84.3062L75.5377 307.663H66.1901L77.2332 263.646ZM58.4505 319.361H84.5669L95.61 275.344H86.2625L77.494 310.295H65.5891L53.9759 262.183H44.6489L58.4505 319.361ZM12.5958 263.646H38.7122L52.5138 320.824H43.1868L31.5736 272.712H19.6687L10.9002 307.663H1.55264L12.5958 263.646ZM-6.18597 319.361H19.9304L30.9735 275.344H21.6259L12.8575 310.295H0.952545L-10.6606 262.183H-19.9876L-6.18597 319.361Z" fill="url(#paint2_linear_56_18879)"/>
</g>
</g>
<defs>
<filter id="filter0_d_56_18879" x="-21.001" y="-32" width="401" height="312.983" filterUnits="userSpaceOnUse" color-interpolation-filters="sRGB">
<feFlood flood-opacity="0" result="BackgroundImageFix"/>
<feColorMatrix in="SourceAlpha" type="matrix" values="0 0 0 0 0 0 0 0 0 0 0 0 0 0 0 0 0 0 127 0" result="hardAlpha"/>
<feOffset dx="-8" dy="5"/>
<feGaussianBlur stdDeviation="6.5"/>
<feColorMatrix type="matrix" values="0 0 0 0 0.270833 0 0 0 0 0.270833 0 0 0 0 0.270833 0 0 0 0.35 0"/>
<feBlend mode="normal" in2="BackgroundImageFix" result="effect1_dropShadow_56_18879"/>
<feBlend mode="normal" in="SourceGraphic" in2="effect1_dropShadow_56_18879" result="shape"/>
</filter>
<linearGradient id="paint0_linear_56_18879" x1="0.989937" y1="250.794" x2="278.551" y2="44.5827" gradientUnits="userSpaceOnUse">
<stop stop-color="#48267F"/>
<stop offset="1" stop-color="#48267F" stop-opacity="0.73"/>
</linearGradient>
<linearGradient id="paint1_linear_56_18879" x1="-0.000178182" y1="250.788" x2="277.77" y2="43.8668" gradientUnits="userSpaceOnUse">
<stop stop-color="#48267F"/>
<stop offset="1" stop-color="#48267F" stop-opacity="0.73"/>
</linearGradient>
<linearGradient id="paint2_linear_56_18879" x1="187" y1="321" x2="184.5" y2="72.9995" gradientUnits="userSpaceOnUse">
<stop stop-opacity="0.1"/>
<stop offset="1" stop-opacity="0"/>
</linearGradient>
</defs>
</svg>
