<svg width="22" height="15" viewBox="0 0 22 15" fill="none" xmlns="http://www.w3.org/2000/svg">
<rect x="0.5" y="0.499939" width="21" height="14" rx="1.5" fill="#AEB1BD" stroke="#AEB1BD"/>
<rect x="4.5" y="4.49994" width="14" height="6" rx="1.5" fill="white" stroke="#AEB1BD"/>
<path d="M16.7812 3.99994H6.21875C5.54666 3.99994 5 4.52324 5 5.16661V9.83327C5 10.4766 5.54666 10.9999 6.21875 10.9999H16.7812C17.4533 10.9999 18 10.4766 18 9.83327V5.16661C18 4.52324 17.4533 3.99994 16.7812 3.99994ZM6.45691 5.90793C6.36576 5.71154 6.45818 5.48185 6.66309 5.39459C6.86799 5.30733 7.10818 5.39581 7.19934 5.59195L7.64062 6.54254L8.08191 5.59195C8.17307 5.39581 8.41326 5.30733 8.61816 5.39459C8.82307 5.48185 8.91549 5.71154 8.82434 5.90793L8.08521 7.49994L8.82434 9.09195C8.94438 9.35059 8.74469 9.63883 8.45338 9.63883C8.29773 9.63883 8.1492 9.55279 8.08191 9.40792L7.64062 8.45758L7.19934 9.40792C7.13205 9.55279 6.98352 9.63883 6.82787 9.63883C6.53674 9.63883 6.33682 9.35069 6.45691 9.09195L7.19603 7.49994L6.45691 5.90793ZM11.5 7.88883H11.2969C11.0724 7.88883 10.8906 7.7148 10.8906 7.49994C10.8906 7.28508 11.0724 7.11105 11.2969 7.11105H11.5C11.612 7.11105 11.7031 7.02379 11.7031 6.91661V6.33327C11.7031 6.22608 11.612 6.13883 11.5 6.13883H10.6875C10.463 6.13883 10.2812 5.9648 10.2812 5.74994C10.2812 5.53508 10.463 5.36105 10.6875 5.36105H11.5C12.0601 5.36105 12.5156 5.79709 12.5156 6.33327C12.5156 6.90035 12.5642 7.17949 12.312 7.49994C12.44 7.66254 12.5156 7.86452 12.5156 8.08327V8.66661C12.5156 9.20279 12.0601 9.63883 11.5 9.63883H10.6875C10.463 9.63883 10.2812 9.4648 10.2812 9.24994C10.2812 9.03508 10.463 8.86105 10.6875 8.86105H11.5C11.612 8.86105 11.7031 8.77379 11.7031 8.66661V8.08327C11.7031 7.97608 11.612 7.88883 11.5 7.88883ZM9.875 7.88883H9.26562C9.04117 7.88883 8.85938 7.7148 8.85938 7.49994C8.85938 7.28508 9.04117 7.11105 9.26562 7.11105H9.875C10.0995 7.11105 10.2812 7.28508 10.2812 7.49994C10.2812 7.7148 10.0995 7.88883 9.875 7.88883ZM14.9531 8.86105C15.1776 8.86105 15.3594 9.03508 15.3594 9.24994C15.3594 9.4648 15.1776 9.63883 14.9531 9.63883H13.3281C13.0045 9.63883 12.81 9.29238 12.9902 9.03411L14.2772 7.18615C14.4537 6.93289 14.5469 6.63782 14.5469 6.33327C14.5469 6.22608 14.4557 6.13883 14.3438 6.13883H13.9375C13.8255 6.13883 13.7344 6.22608 13.7344 6.33327C13.7344 6.54813 13.5526 6.72216 13.3281 6.72216C13.1037 6.72216 12.9219 6.54813 12.9219 6.33327C12.9219 5.79709 13.3774 5.36105 13.9375 5.36105H14.3438C14.9039 5.36105 15.3594 5.79709 15.3594 6.33327C15.3594 6.79192 15.219 7.23598 14.9531 7.61758L14.0873 8.86105H14.9531ZM16.5781 9.24994C16.5781 9.4648 16.3963 9.63883 16.1719 9.63883C15.9474 9.63883 15.7656 9.4648 15.7656 9.24994V5.74994C15.7656 5.53508 15.9474 5.36105 16.1719 5.36105C16.3963 5.36105 16.5781 5.53508 16.5781 5.74994V9.24994Z" fill="#AEB1BD"/>
</svg>
