<svg width="375" height="812" viewBox="0 0 375 812" fill="none" xmlns="http://www.w3.org/2000/svg">
<mask id="mask0_13_1368" style="mask-type:alpha" maskUnits="userSpaceOnUse" x="0" y="0" width="375" height="813">
<path opacity="0.5" d="M0 0H375V813H0V0Z" fill="#C4C4C4"/>
</mask>
<g mask="url(#mask0_13_1368)">
<path fill-rule="evenodd" clip-rule="evenodd" d="M335.422 43.354L361.538 43.354L372.581 -0.66299L363.233 -0.662991L354.465 34.2874H342.56L330.947 -13.8242H321.62L335.422 43.354ZM380.32 -12.3618H354.204L343.161 31.6551H352.509L361.277 -3.29522H373.182L384.795 44.8164H394.122L380.32 -12.3618ZM289.568 -12.3618H315.684L329.486 44.8164H320.159L308.546 -3.29521H296.641L287.872 31.6551H278.525L289.568 -12.3618ZM270.785 43.354L296.902 43.354L307.945 -0.662979L298.597 -0.66298L289.829 34.2874H277.924L266.311 -13.8242L256.984 -13.8242L270.785 43.354ZM224.932 -12.3618H251.048L264.85 44.8164H255.523L243.909 -3.29522H232.005L223.236 31.6551H213.889L224.932 -12.3618ZM206.149 43.354L232.265 43.354L243.309 -0.66299L233.961 -0.662991L225.193 34.2874H213.288L201.674 -13.8242H192.347L206.149 43.354ZM160.295 -12.3618H186.412L200.213 44.8164H190.886L179.273 -3.29521H167.368L158.6 31.6551H149.252L160.295 -12.3618ZM141.513 43.354L167.629 43.354L178.672 -0.662979L169.325 -0.66298L160.556 34.2874H148.651L137.038 -13.8242L127.711 -13.8242L141.513 43.354ZM95.6592 -12.3618H121.776L135.577 44.8164H126.25L114.637 -3.29522H102.732L93.9637 31.6551H84.616L95.6592 -12.3618ZM76.8766 43.354L102.993 43.354L114.036 -0.66299L104.689 -0.662991L95.9201 34.2874H84.0151L72.402 -13.8242H63.075L76.8766 43.354ZM31.0228 -12.3618H57.1392L70.9409 44.8164H61.6138L50.0007 -3.29521H38.0958L29.3273 31.6551H19.9797L31.0228 -12.3618ZM12.2403 43.354L38.3567 43.354L49.3998 -0.662979L40.0522 -0.66298L31.2838 34.2874H19.3788L7.76572 -13.8242L-1.56131 -13.8242L12.2403 43.354ZM354.204 115.595H380.32L394.122 172.773H384.795L373.182 124.661H361.277L352.509 159.612H343.161L354.204 115.595ZM335.422 171.31H361.538L372.581 127.293H363.233L354.465 162.244H342.56L330.947 114.132L321.62 114.132L335.422 171.31ZM289.568 115.595H315.684L329.486 172.773H320.159L308.546 124.661H296.641L287.872 159.612H278.525L289.568 115.595ZM270.785 171.31H296.902L307.945 127.293H298.597L289.829 162.244H277.924L266.311 114.132H256.984L270.785 171.31ZM224.932 115.595H251.048L264.85 172.773H255.523L243.909 124.661H232.005L223.236 159.612H213.889L224.932 115.595ZM206.149 171.31H232.265L243.309 127.293H233.961L225.193 162.244H213.288L201.674 114.132L192.347 114.132L206.149 171.31ZM160.295 115.595H186.412L200.213 172.773H190.886L179.273 124.661H167.368L158.6 159.612H149.252L160.295 115.595ZM141.513 171.31H167.629L178.672 127.293H169.325L160.556 162.244H148.651L137.038 114.132H127.711L141.513 171.31ZM95.6592 115.595H121.776L135.577 172.773H126.25L114.637 124.661H102.732L93.9637 159.612H84.616L95.6592 115.595ZM76.8766 171.31H102.993L114.036 127.293H104.689L95.9201 162.244H84.0151L72.402 114.132L63.075 114.132L76.8766 171.31ZM31.0228 115.595H57.1392L70.9409 172.773H61.6138L50.0007 124.661H38.0958L29.3273 159.612H19.9797L31.0228 115.595ZM12.2403 171.31H38.3567L49.3998 127.293H40.0522L31.2838 162.244H19.3788L7.76572 114.132H-1.56131L12.2403 171.31ZM335.779 51.5432H361.896L375.697 108.721H366.37L354.757 60.6098H342.852L334.084 95.5602H324.736L335.779 51.5432ZM316.997 107.259H343.113L354.156 63.2421H344.809L336.04 98.1924L324.135 98.1924L312.522 50.0808H303.195L316.997 107.259ZM271.142 51.5432H297.258L311.06 108.721H301.733L290.12 60.6098H278.215L269.446 95.5602H260.099L271.142 51.5432ZM252.36 107.259H278.477L289.52 63.2421H280.172L271.404 98.1924H259.499L247.886 50.0808H238.559L252.36 107.259ZM206.507 51.5432H232.623L246.425 108.721H237.098L225.485 60.6098H213.58L204.812 95.5602H195.464L206.507 51.5432ZM187.725 107.259H213.841L224.884 63.2421H215.536L206.768 98.1924L194.863 98.1924L183.25 50.0808H173.923L187.725 107.259ZM141.87 51.5432H167.986L181.788 108.721H172.461L160.847 60.6098H148.942L140.174 95.5602H130.826L141.87 51.5432ZM123.088 107.259H149.204L160.247 63.2421H150.9L142.131 98.1924H130.226L118.613 50.0808H109.286L123.088 107.259ZM77.2345 51.5432H103.351L117.153 108.721H107.826L96.2124 60.6098H84.3075L75.539 95.5602H66.1914L77.2345 51.5432ZM58.452 107.259H84.5684L95.6115 63.2421H86.2639L77.4955 98.1924L65.5905 98.1924L53.9774 50.0808H44.6504L58.452 107.259ZM12.597 51.5432H38.7134L52.5151 108.721H43.188L31.5749 60.6098H19.67L10.9015 95.5602H1.55392L12.597 51.5432ZM-6.18469 107.259H19.9317L30.9748 63.2421H21.6272L12.8588 98.1924H0.953827L-10.6593 50.0808H-19.9863L-6.18469 107.259ZM335.779 179.646H361.896L375.697 236.824H366.37L354.757 188.712H342.852L334.084 223.663H324.736L335.779 179.646ZM316.997 235.362H343.113L354.156 191.345H344.809L336.04 226.295H324.135L312.522 178.183H303.195L316.997 235.362ZM271.142 179.646H297.258L311.06 236.824H301.733L290.12 188.712H278.215L269.446 223.663H260.099L271.142 179.646ZM252.36 235.362H278.477L289.52 191.345H280.172L271.404 226.295H259.499L247.886 178.183H238.559L252.36 235.362ZM206.507 179.646H232.623L246.425 236.824H237.098L225.485 188.712H213.58L204.812 223.663H195.464L206.507 179.646ZM187.725 235.362H213.841L224.884 191.345H215.536L206.768 226.295H194.863L183.25 178.183H173.923L187.725 235.362ZM141.87 179.646H167.986L181.788 236.824H172.461L160.847 188.712H148.942L140.174 223.663H130.826L141.87 179.646ZM123.088 235.362H149.204L160.247 191.345H150.9L142.131 226.295H130.226L118.613 178.183H109.286L123.088 235.362ZM77.2345 179.646H103.351L117.153 236.824H107.826L96.2124 188.712H84.3075L75.539 223.663H66.1914L77.2345 179.646ZM58.452 235.362H84.5684L95.6115 191.345H86.2639L77.4955 226.295H65.5905L53.9774 178.183H44.6504L58.452 235.362ZM12.597 179.646H38.7134L52.5151 236.824H43.188L31.5749 188.712H19.67L10.9015 223.663H1.55392L12.597 179.646ZM-6.18469 235.362H19.9317L30.9748 191.345H21.6272L12.8588 226.295H0.953827L-10.6593 178.183H-19.9863L-6.18469 235.362ZM335.422 299.178H361.538L372.581 255.161H363.233L354.465 290.112H342.56L330.947 242H321.62L335.422 299.178ZM380.32 243.462H354.204L343.161 287.479H352.509L361.277 252.529H373.182L384.795 300.641H394.122L380.32 243.462ZM289.568 243.462H315.684L329.486 300.641H320.159L308.546 252.529H296.641L287.872 287.479H278.525L289.568 243.462ZM270.785 299.178H296.902L307.945 255.161L298.597 255.161L289.829 290.112H277.924L266.311 242H256.984L270.785 299.178ZM224.932 243.462H251.048L264.85 300.641H255.523L243.909 252.529H232.005L223.236 287.479H213.889L224.932 243.462ZM206.149 299.178H232.265L243.309 255.161H233.961L225.193 290.112H213.288L201.674 242H192.347L206.149 299.178ZM160.295 243.462H186.412L200.213 300.641H190.886L179.273 252.529H167.368L158.6 287.479H149.252L160.295 243.462ZM141.513 299.178H167.629L178.672 255.161L169.325 255.161L160.556 290.112H148.651L137.038 242H127.711L141.513 299.178ZM95.6592 243.462H121.776L135.577 300.641H126.25L114.637 252.529H102.732L93.9637 287.479H84.616L95.6592 243.462ZM76.8766 299.178H102.993L114.036 255.161H104.689L95.9201 290.112H84.0151L72.402 242H63.075L76.8766 299.178ZM31.0228 243.462H57.1392L70.9409 300.641H61.6138L50.0007 252.529H38.0958L29.3273 287.479H19.9797L31.0228 243.462ZM12.2403 299.178H38.3567L49.3998 255.161L40.0522 255.161L31.2838 290.112H19.3788L7.76572 242H-1.56131L12.2403 299.178ZM354.204 371.419H380.32L394.122 428.597H384.795L373.182 380.486H361.277L352.509 415.436H343.161L354.204 371.419ZM335.422 427.135H361.538L372.581 383.118H363.233L354.465 418.068H342.56L330.947 369.957H321.62L335.422 427.135ZM289.568 371.419H315.684L329.486 428.597H320.159L308.546 380.486H296.641L287.872 415.436H278.525L289.568 371.419ZM270.785 427.135H296.902L307.945 383.118H298.597L289.829 418.068H277.924L266.311 369.957H256.984L270.785 427.135ZM224.932 371.419H251.048L264.85 428.597H255.523L243.909 380.486H232.005L223.236 415.436H213.889L224.932 371.419ZM206.149 427.135H232.265L243.309 383.118H233.961L225.193 418.068H213.288L201.674 369.957H192.347L206.149 427.135ZM160.295 371.419H186.412L200.213 428.597H190.886L179.273 380.486H167.368L158.6 415.436H149.252L160.295 371.419ZM141.513 427.135H167.629L178.672 383.118H169.325L160.556 418.068H148.651L137.038 369.957H127.711L141.513 427.135ZM95.6592 371.419H121.776L135.577 428.597H126.25L114.637 380.486H102.732L93.9637 415.436H84.616L95.6592 371.419ZM76.8766 427.135H102.993L114.036 383.118H104.689L95.9201 418.068H84.0151L72.402 369.957H63.075L76.8766 427.135ZM31.0228 371.419H57.1392L70.9409 428.597H61.6138L50.0007 380.486H38.0958L29.3273 415.436H19.9797L31.0228 371.419ZM12.2403 427.135H38.3567L49.3998 383.118H40.0522L31.2838 418.068H19.3788L7.76572 369.957H-1.56131L12.2403 427.135ZM335.779 307.368H361.896L375.697 364.546H366.37L354.757 316.434H342.852L334.084 351.385H324.736L335.779 307.368ZM316.997 363.083H343.113L354.156 319.066H344.809L336.04 354.017H324.135L312.522 305.905H303.195L316.997 363.083ZM271.142 307.368H297.258L311.06 364.546H301.733L290.12 316.434H278.215L269.446 351.384H260.099L271.142 307.368ZM252.36 363.083H278.477L289.52 319.066H280.172L271.404 354.017H259.499L247.886 305.905H238.559L252.36 363.083ZM206.507 307.368H232.623L246.425 364.546H237.098L225.485 316.434H213.58L204.812 351.385H195.464L206.507 307.368ZM187.725 363.083H213.841L224.884 319.066H215.536L206.768 354.017H194.863L183.25 305.905H173.923L187.725 363.083ZM141.87 307.368H167.986L181.788 364.546H172.461L160.847 316.434H148.942L140.174 351.384H130.826L141.87 307.368ZM123.088 363.083H149.204L160.247 319.066H150.9L142.131 354.017H130.226L118.613 305.905H109.286L123.088 363.083ZM77.2345 307.368H103.351L117.153 364.546H107.826L96.2124 316.434H84.3075L75.539 351.385H66.1914L77.2345 307.368ZM58.452 363.083H84.5684L95.6115 319.066H86.2639L77.4955 354.017H65.5905L53.9774 305.905H44.6504L58.452 363.083ZM12.597 307.368H38.7134L52.5151 364.546H43.188L31.5749 316.434H19.67L10.9015 351.384H1.55392L12.597 307.368ZM-6.18469 363.083H19.9317L30.9748 319.066H21.6272L12.8588 354.017H0.953827L-10.6593 305.905H-19.9863L-6.18469 363.083ZM335.779 435.47H361.896L375.697 492.648H366.37L354.757 444.537H342.852L334.084 479.487H324.736L335.779 435.47ZM316.997 491.186H343.113L354.156 447.169H344.809L336.04 482.119H324.135L312.522 434.008H303.195L316.997 491.186ZM271.142 435.47H297.258L311.06 492.648H301.733L290.12 444.537H278.215L269.446 479.487H260.099L271.142 435.47ZM252.36 491.186H278.477L289.52 447.169H280.172L271.404 482.119H259.499L247.886 434.008H238.559L252.36 491.186ZM206.507 435.47H232.623L246.425 492.648H237.098L225.485 444.537H213.58L204.812 479.487H195.464L206.507 435.47ZM187.725 491.186H213.841L224.884 447.169H215.536L206.768 482.119H194.863L183.25 434.008H173.923L187.725 491.186ZM141.87 435.47H167.986L181.788 492.648H172.461L160.847 444.537H148.942L140.174 479.487H130.826L141.87 435.47ZM123.088 491.186H149.204L160.247 447.169H150.9L142.131 482.119H130.226L118.613 434.008H109.286L123.088 491.186ZM77.2345 435.47H103.351L117.153 492.648H107.826L96.2124 444.537H84.3075L75.539 479.487H66.1914L77.2345 435.47ZM58.452 491.186H84.5684L95.6115 447.169H86.2639L77.4955 482.119H65.5905L53.9774 434.008H44.6504L58.452 491.186ZM12.597 435.47H38.7134L52.5151 492.648H43.188L31.5749 444.537H19.67L10.9015 479.487H1.55392L12.597 435.47ZM-6.18469 491.186H19.9317L30.9748 447.169H21.6272L12.8588 482.119H0.953827L-10.6593 434.008H-19.9863L-6.18469 491.186ZM361.538 555.003H335.422L321.62 497.824H330.947L342.56 545.936H354.465L363.233 510.986H372.581L361.538 555.003ZM354.204 499.287H380.32L394.122 556.465H384.795L373.182 508.353H361.277L352.509 543.304H343.161L354.204 499.287ZM315.684 499.287H289.568L278.525 543.304H287.872L296.641 508.353H308.546L320.159 556.465H329.486L315.684 499.287ZM296.902 555.003H270.785L256.984 497.824H266.311L277.924 545.936H289.829L298.597 510.986H307.945L296.902 555.003ZM251.048 499.287H224.932L213.889 543.304H223.236L232.005 508.353H243.909L255.523 556.465H264.85L251.048 499.287ZM232.265 555.003H206.149L192.347 497.824H201.674L213.288 545.936H225.193L233.961 510.986H243.309L232.265 555.003ZM186.412 499.287H160.295L149.252 543.304H158.6L167.368 508.353H179.273L190.886 556.465H200.213L186.412 499.287ZM167.629 555.003H141.513L127.711 497.824H137.038L148.651 545.936H160.556L169.325 510.986H178.672L167.629 555.003ZM121.776 499.287H95.6592L84.616 543.304H93.9637L102.732 508.353H114.637L126.25 556.465H135.577L121.776 499.287ZM102.993 555.003H76.8766L63.075 497.824H72.402L84.0151 545.936H95.9201L104.689 510.986H114.036L102.993 555.003ZM57.1392 499.287H31.0228L19.9797 543.304H29.3273L38.0958 508.353H50.0007L61.6138 556.465H70.9409L57.1392 499.287ZM38.3567 555.003H12.2403L-1.56131 497.824H7.76572L19.3788 545.936H31.2838L40.0522 510.986H49.3998L38.3567 555.003ZM380.32 627.243H354.204L343.161 671.26H352.509L361.277 636.31H373.182L384.795 684.422H394.122L380.32 627.243ZM361.538 682.959H335.422L321.62 625.781H330.947L342.56 673.893H354.465L363.233 638.942H372.581L361.538 682.959ZM315.684 627.243H289.568L278.525 671.26H287.872L296.641 636.31H308.546L320.159 684.422H329.486L315.684 627.243ZM296.902 682.959H270.785L256.984 625.781H266.311L277.924 673.893H289.829L298.597 638.942H307.945L296.902 682.959ZM251.048 627.243H224.932L213.889 671.26H223.236L232.005 636.31H243.909L255.523 684.422H264.85L251.048 627.243ZM232.265 682.959H206.149L192.347 625.781H201.674L213.288 673.893H225.193L233.961 638.942H243.309L232.265 682.959ZM186.412 627.243H160.295L149.252 671.26H158.6L167.368 636.31H179.273L190.886 684.422H200.213L186.412 627.243ZM167.629 682.959H141.513L127.711 625.781H137.038L148.651 673.893H160.556L169.325 638.942H178.672L167.629 682.959ZM121.776 627.243H95.6592L84.616 671.26H93.9637L102.732 636.31H114.637L126.25 684.422H135.577L121.776 627.243ZM102.993 682.959H76.8766L63.075 625.781H72.402L84.0151 673.893H95.9201L104.689 638.942H114.036L102.993 682.959ZM57.1392 627.243H31.0228L19.9797 671.26H29.3273L38.0958 636.31H50.0007L61.6138 684.422H70.9409L57.1392 627.243ZM38.3567 682.959H12.2403L-1.56131 625.781H7.76572L19.3788 673.893H31.2838L40.0522 638.942H49.3998L38.3567 682.959ZM361.896 563.192H335.779L324.736 607.209H334.084L342.852 572.258H354.757L366.37 620.37H375.697L361.896 563.192ZM343.113 618.908H316.997L303.195 561.729H312.522L324.135 609.841H336.04L344.809 574.891H354.156L343.113 618.908ZM297.258 563.192H271.142L260.099 607.209H269.446L278.215 572.258H290.12L301.733 620.37H311.06L297.258 563.192ZM278.477 618.908H252.36L238.559 561.729H247.886L259.499 609.841H271.404L280.172 574.891H289.52L278.477 618.908ZM232.623 563.192H206.507L195.464 607.209H204.812L213.58 572.258H225.485L237.098 620.37H246.425L232.623 563.192ZM213.841 618.908H187.725L173.923 561.729H183.25L194.863 609.841H206.768L215.536 574.891H224.884L213.841 618.908ZM167.986 563.192H141.87L130.826 607.209H140.174L148.942 572.258H160.847L172.461 620.37H181.788L167.986 563.192ZM149.204 618.908H123.088L109.286 561.729H118.613L130.226 609.841H142.131L150.9 574.891H160.247L149.204 618.908ZM103.351 563.192H77.2345L66.1914 607.209H75.539L84.3075 572.258H96.2124L107.826 620.37H117.153L103.351 563.192ZM84.5684 618.908H58.452L44.6504 561.729H53.9774L65.5905 609.841H77.4955L86.2639 574.891H95.6115L84.5684 618.908ZM38.7134 563.192H12.597L1.55392 607.209H10.9015L19.67 572.258H31.5749L43.188 620.37H52.5151L38.7134 563.192ZM19.9317 618.908H-6.18469L-19.9863 561.729H-10.6593L0.953827 609.841H12.8588L21.6272 574.891H30.9748L19.9317 618.908ZM361.896 691.295H335.779L324.736 735.312H334.084L342.852 700.361H354.757L366.37 748.473H375.697L361.896 691.295ZM343.113 747.01H316.997L303.195 689.832H312.522L324.135 737.944H336.04L344.809 702.993H354.156L343.113 747.01ZM297.258 691.295H271.142L260.099 735.312H269.446L278.215 700.361H290.12L301.733 748.473H311.06L297.258 691.295ZM278.477 747.01H252.36L238.559 689.832H247.886L259.499 737.944H271.404L280.172 702.993H289.52L278.477 747.01ZM232.623 691.295H206.507L195.464 735.312H204.812L213.58 700.361H225.485L237.098 748.473H246.425L232.623 691.295ZM213.841 747.01H187.725L173.923 689.832H183.25L194.863 737.944H206.768L215.536 702.993H224.884L213.841 747.01ZM167.986 691.295H141.87L130.826 735.312H140.174L148.942 700.361H160.847L172.461 748.473H181.788L167.986 691.295ZM149.204 747.01H123.088L109.286 689.832H118.613L130.226 737.944H142.131L150.9 702.993H160.247L149.204 747.01ZM103.351 691.295H77.2345L66.1914 735.312H75.539L84.3075 700.361H96.2124L107.826 748.473H117.153L103.351 691.295ZM84.5684 747.01H58.452L44.6504 689.832H53.9774L65.5905 737.944H77.4955L86.2639 702.993H95.6115L84.5684 747.01ZM38.7134 691.295H12.597L1.55392 735.312H10.9015L19.67 700.361H31.5749L43.188 748.473H52.5151L38.7134 691.295ZM19.9317 747.01H-6.18469L-19.9863 689.832H-10.6593L0.953827 737.944H12.8588L21.6272 702.993H30.9748L19.9317 747.01Z" fill="url(#paint0_radial_13_1368)"/>
</g>
<defs>
<radialGradient id="paint0_radial_13_1368" cx="0" cy="0" r="1" gradientUnits="userSpaceOnUse" gradientTransform="translate(184.5 289.5) rotate(-90) scale(221.5 445.98)">
<stop stop-opacity="0.1"/>
<stop offset="1" stop-opacity="0"/>
</radialGradient>
</defs>
</svg>
