<svg width="157" height="104" viewBox="0 0 157 104" fill="none" xmlns="http://www.w3.org/2000/svg">
<path d="M26.5407 18.126L7.9425 12.7641L13.1751 4.12585L26.5407 18.126Z" fill="#D9D9D9"/>
<path d="M26.5407 18.126L7.9425 12.7641L13.1751 4.12585L26.5407 18.126Z" fill="url(#paint0_linear_1250_2108)"/>
<path d="M42.0656 89.5892L35.6078 100.359L31.0622 95.6397L42.0656 89.5892Z" fill="#D9D9D9"/>
<path d="M42.0656 89.5892L35.6078 100.359L31.0622 95.6397L42.0656 89.5892Z" fill="url(#paint1_linear_1250_2108)"/>
<path d="M134.916 73.2738L146.309 75.6377L143.568 81.0549L134.916 73.2738Z" fill="#D9D9D9"/>
<path d="M134.916 73.2738L146.309 75.6377L143.568 81.0549L134.916 73.2738Z" fill="url(#paint2_linear_1250_2108)"/>
<path d="M15.0565 39.5934L3.98726 41.199L4.68532 35.4047L15.0565 39.5934Z" fill="#D9D9D9"/>
<path d="M15.0565 39.5934L3.98726 41.199L4.68532 35.4047L15.0565 39.5934Z" fill="url(#paint3_linear_1250_2108)"/>
<path d="M137.284 45.8388L151.259 41.1772L151.705 48.8514L137.284 45.8388Z" fill="#D9D9D9"/>
<path d="M137.284 45.8388L151.259 41.1772L151.705 48.8514L137.284 45.8388Z" fill="url(#paint4_linear_1250_2108)"/>
<path d="M25.2112 61.9822L11.2549 73.5638L7.32094 64.9572L25.2112 61.9822Z" fill="#D9D9D9"/>
<path d="M25.2112 61.9822L11.2549 73.5638L7.32094 64.9572L25.2112 61.9822Z" fill="url(#paint5_linear_1250_2108)"/>
<path d="M25.2112 61.9822L11.2549 73.5638L7.32094 64.9572L25.2112 61.9822Z" fill="url(#paint6_linear_1250_2108)"/>
<path d="M129.531 21.418L137.18 10.9399L141.417 16.219L129.531 21.418Z" fill="#D9D9D9"/>
<path d="M129.531 21.418L137.18 10.9399L141.417 16.219L129.531 21.418Z" fill="url(#paint7_linear_1250_2108)"/>
<path d="M129.531 21.418L137.18 10.9399L141.417 16.219L129.531 21.418Z" fill="url(#paint8_linear_1250_2108)"/>
<circle cx="39.4514" cy="6.81757" r="5.23847" fill="#D9D9D9"/>
<circle cx="39.4514" cy="6.81757" r="5.23847" fill="url(#paint9_linear_1250_2108)"/>
<circle cx="151.497" cy="62.5483" r="2.92004" transform="rotate(-45 151.497 62.5483)" fill="#D9D9D9"/>
<circle cx="151.497" cy="62.5483" r="2.92004" transform="rotate(-45 151.497 62.5483)" fill="url(#paint10_linear_1250_2108)"/>
<circle cx="17.7082" cy="49.5312" r="1.97216" transform="rotate(-45 17.7082 49.5312)" fill="#D9D9D9"/>
<circle cx="17.7082" cy="49.5312" r="1.97216" transform="rotate(-45 17.7082 49.5312)" fill="url(#paint11_linear_1250_2108)"/>
<circle cx="22.6527" cy="28.357" r="2.84823" transform="rotate(120 22.6527 28.357)" fill="#D9D9D9"/>
<circle cx="22.6527" cy="28.357" r="2.84823" transform="rotate(120 22.6527 28.357)" fill="url(#paint12_linear_1250_2108)"/>
<circle cx="22.6527" cy="28.357" r="2.84823" transform="rotate(120 22.6527 28.357)" fill="url(#paint13_linear_1250_2108)"/>
<circle cx="120.666" cy="7.21579" r="4.56637" transform="rotate(141.251 120.666 7.21579)" fill="#D9D9D9"/>
<circle cx="120.666" cy="7.21579" r="4.56637" transform="rotate(141.251 120.666 7.21579)" fill="url(#paint14_linear_1250_2108)"/>
<circle cx="120.666" cy="7.21579" r="4.56637" transform="rotate(141.251 120.666 7.21579)" fill="url(#paint15_linear_1250_2108)"/>
<circle cx="140.041" cy="35.4995" r="1.83018" transform="rotate(120 140.041 35.4995)" fill="#D9D9D9"/>
<circle cx="140.041" cy="35.4995" r="1.83018" transform="rotate(120 140.041 35.4995)" fill="url(#paint16_linear_1250_2108)"/>
<circle cx="140.041" cy="35.4995" r="1.83018" transform="rotate(120 140.041 35.4995)" fill="url(#paint17_linear_1250_2108)"/>
<circle cx="128.128" cy="92.3135" r="2.84823" transform="rotate(120 128.128 92.3135)" fill="#D9D9D9"/>
<circle cx="128.128" cy="92.3135" r="2.84823" transform="rotate(120 128.128 92.3135)" fill="url(#paint18_linear_1250_2108)"/>
<circle cx="128.128" cy="92.3135" r="2.84823" transform="rotate(120 128.128 92.3135)" fill="url(#paint19_linear_1250_2108)"/>
<circle cx="28.4987" cy="78.9101" r="3.38546" transform="rotate(-169.301 28.4987 78.9101)" fill="#D9D9D9"/>
<circle cx="28.4987" cy="78.9101" r="3.38546" transform="rotate(-169.301 28.4987 78.9101)" fill="url(#paint20_linear_1250_2108)"/>
<circle cx="28.4987" cy="78.9101" r="3.38546" transform="rotate(-169.301 28.4987 78.9101)" fill="url(#paint21_linear_1250_2108)"/>
<path d="M82 93C104.091 93 122 75.0914 122 53C122 30.9086 104.091 13 82 13C59.9086 13 42 30.9086 42 53C42 75.0914 59.9086 93 82 93Z" fill="#FE7F06" fill-opacity="0.2"/>
<path d="M82.0003 87.0626C63.218 87.0626 47.9375 71.7822 47.9375 52.9998C47.9372 34.2175 63.2177 18.937 82.0003 18.937C100.783 18.937 116.063 34.2175 116.063 52.9998C116.063 71.7822 100.782 87.0626 82.0003 87.0626Z" fill="#FE7F06"/>
<g clip-path="url(#clip0_1250_2108)">
<path d="M93.0005 47.3332H88.8755V41.6665H69.6255C68.113 41.6665 66.8755 42.9415 66.8755 44.4998V60.0832H69.6255C69.6255 62.4348 71.468 64.3332 73.7505 64.3332C76.033 64.3332 77.8755 62.4348 77.8755 60.0832H86.1255C86.1255 62.4348 87.968 64.3332 90.2505 64.3332C92.533 64.3332 94.3755 62.4348 94.3755 60.0832H97.1255V52.9998L93.0005 47.3332ZM73.7505 62.2082C72.6092 62.2082 71.688 61.259 71.688 60.0832C71.688 58.9073 72.6092 57.9582 73.7505 57.9582C74.8917 57.9582 75.813 58.9073 75.813 60.0832C75.813 61.259 74.8917 62.2082 73.7505 62.2082ZM92.313 49.4582L95.008 52.9998H88.8755V49.4582H92.313ZM90.2505 62.2082C89.1092 62.2082 88.188 61.259 88.188 60.0832C88.188 58.9073 89.1092 57.9582 90.2505 57.9582C91.3917 57.9582 92.313 58.9073 92.313 60.0832C92.313 61.259 91.3917 62.2082 90.2505 62.2082Z" fill="white"/>
</g>
<defs>
<linearGradient id="paint0_linear_1250_2108" x1="5.22881" y1="5.21717" x2="26.5404" y2="18.1266" gradientUnits="userSpaceOnUse">
<stop stop-color="#FFCC00"/>
<stop offset="1" stop-color="#FF9700"/>
</linearGradient>
<linearGradient id="paint1_linear_1250_2108" x1="30.4239" y1="100.804" x2="42.0659" y2="89.5895" gradientUnits="userSpaceOnUse">
<stop stop-color="#FFCC00"/>
<stop offset="1" stop-color="#FF9700"/>
</linearGradient>
<linearGradient id="paint2_linear_1250_2108" x1="148.281" y1="80.0375" x2="134.916" y2="73.2734" gradientUnits="userSpaceOnUse">
<stop stop-color="#FFCC00"/>
<stop offset="1" stop-color="#FF9700"/>
</linearGradient>
<linearGradient id="paint3_linear_1250_2108" x1="0.761299" y1="37.8716" x2="15.0564" y2="39.5938" gradientUnits="userSpaceOnUse">
<stop stop-color="#FFCC00"/>
<stop offset="1" stop-color="#FF9700"/>
</linearGradient>
<linearGradient id="paint4_linear_1250_2108" x1="156.217" y1="44.7388" x2="137.284" y2="45.8383" gradientUnits="userSpaceOnUse">
<stop stop-color="#FFCC00"/>
<stop offset="1" stop-color="#FF9700"/>
</linearGradient>
<linearGradient id="paint5_linear_1250_2108" x1="3.9781" y1="71.6883" x2="25.2115" y2="61.9828" gradientUnits="userSpaceOnUse">
<stop stop-color="#FFCC00"/>
<stop offset="1" stop-color="#FF9700"/>
</linearGradient>
<linearGradient id="paint6_linear_1250_2108" x1="10.1711" y1="67.3609" x2="21.0837" y2="62.9334" gradientUnits="userSpaceOnUse">
<stop stop-color="#492780"/>
<stop offset="1" stop-color="#7960A1"/>
</linearGradient>
<linearGradient id="paint7_linear_1250_2108" x1="142.555" y1="10.9651" x2="129.531" y2="21.4176" gradientUnits="userSpaceOnUse">
<stop stop-color="#FFCC00"/>
<stop offset="1" stop-color="#FF9700"/>
</linearGradient>
<linearGradient id="paint8_linear_1250_2108" x1="131.142" y1="20.1773" x2="137.662" y2="13.0277" gradientUnits="userSpaceOnUse">
<stop stop-color="#7960A1"/>
<stop offset="1" stop-color="#492780"/>
</linearGradient>
<linearGradient id="paint9_linear_1250_2108" x1="33.7219" y1="6.64773" x2="45.0205" y2="6.17451" gradientUnits="userSpaceOnUse">
<stop stop-color="#492780"/>
<stop offset="1" stop-color="#7960A1"/>
</linearGradient>
<linearGradient id="paint10_linear_1250_2108" x1="148.303" y1="62.4537" x2="154.601" y2="62.1899" gradientUnits="userSpaceOnUse">
<stop stop-color="#492780"/>
<stop offset="1" stop-color="#7960A1"/>
</linearGradient>
<linearGradient id="paint11_linear_1250_2108" x1="15.5512" y1="49.4673" x2="19.8049" y2="49.2892" gradientUnits="userSpaceOnUse">
<stop stop-color="#492780"/>
<stop offset="1" stop-color="#7960A1"/>
</linearGradient>
<linearGradient id="paint12_linear_1250_2108" x1="19.5375" y1="28.2646" x2="25.6807" y2="28.0073" gradientUnits="userSpaceOnUse">
<stop stop-color="#492780"/>
<stop offset="1" stop-color="#7960A1"/>
</linearGradient>
<linearGradient id="paint13_linear_1250_2108" x1="22.653" y1="31.2058" x2="22.653" y2="25.5087" gradientUnits="userSpaceOnUse">
<stop stop-color="#FFCC00"/>
<stop offset="1" stop-color="#FF9700"/>
</linearGradient>
<linearGradient id="paint14_linear_1250_2108" x1="115.672" y1="7.06774" x2="125.521" y2="6.65523" gradientUnits="userSpaceOnUse">
<stop stop-color="#492780"/>
<stop offset="1" stop-color="#7960A1"/>
</linearGradient>
<linearGradient id="paint15_linear_1250_2108" x1="120.667" y1="11.7832" x2="120.667" y2="2.64941" gradientUnits="userSpaceOnUse">
<stop stop-color="#FFCC00"/>
<stop offset="1" stop-color="#FF9700"/>
</linearGradient>
<linearGradient id="paint16_linear_1250_2108" x1="138.039" y1="35.4401" x2="141.987" y2="35.2748" gradientUnits="userSpaceOnUse">
<stop stop-color="#492780"/>
<stop offset="1" stop-color="#7960A1"/>
</linearGradient>
<linearGradient id="paint17_linear_1250_2108" x1="140.041" y1="37.3301" x2="140.041" y2="33.6693" gradientUnits="userSpaceOnUse">
<stop stop-color="#FFCC00"/>
<stop offset="1" stop-color="#FF9700"/>
</linearGradient>
<linearGradient id="paint18_linear_1250_2108" x1="125.013" y1="92.2212" x2="131.156" y2="91.9639" gradientUnits="userSpaceOnUse">
<stop stop-color="#492780"/>
<stop offset="1" stop-color="#7960A1"/>
</linearGradient>
<linearGradient id="paint19_linear_1250_2108" x1="128.128" y1="95.1624" x2="128.128" y2="89.4653" gradientUnits="userSpaceOnUse">
<stop stop-color="#FFCC00"/>
<stop offset="1" stop-color="#FF9700"/>
</linearGradient>
<linearGradient id="paint20_linear_1250_2108" x1="24.7959" y1="78.8003" x2="32.0978" y2="78.4945" gradientUnits="userSpaceOnUse">
<stop stop-color="#492780"/>
<stop offset="1" stop-color="#7960A1"/>
</linearGradient>
<linearGradient id="paint21_linear_1250_2108" x1="28.4991" y1="82.2963" x2="28.4991" y2="75.5246" gradientUnits="userSpaceOnUse">
<stop stop-color="#FFCC00"/>
<stop offset="1" stop-color="#FF9700"/>
</linearGradient>
<clipPath id="clip0_1250_2108">
<rect width="33" height="34" fill="white" transform="translate(65.5005 36)"/>
</clipPath>
</defs>
</svg>
