<svg width="19" height="19" viewBox="0 0 19 19" fill="none" xmlns="http://www.w3.org/2000/svg">
<path d="M6.23828 2.58832L6.52828 5.12832C6.59828 5.73832 6.38828 6.33832 5.95828 6.76832L4.11828 8.60832C5.55828 11.4383 7.86828 13.7583 10.7083 15.1983L12.5583 13.3483C12.9883 12.9183 13.5883 12.7083 14.1983 12.7783L16.7183 13.0683C17.7283 13.1883 18.4883 14.0383 18.4883 15.0583L18.4883 16.7883C18.4883 17.9183 17.5483 18.8583 16.4183 18.7883C7.87828 18.2583 1.05828 11.4283 0.528282 2.89832C0.458283 1.76832 1.39828 0.828319 2.52828 0.828319L4.25828 0.828319C5.26828 0.818319 6.11828 1.57832 6.23828 2.58832Z" fill="#48267F"/>
</svg>
