<svg width="91" height="91" viewBox="0 0 91 91" fill="none" xmlns="http://www.w3.org/2000/svg">
<g opacity="0.5">
<circle cx="45.5" cy="45.5" r="45.5" fill="#FDD9D9"/>
<circle cx="45.5" cy="45.5" r="44" stroke="#FE7F06" stroke-opacity="0.5" stroke-width="3"/>
</g>
<g clip-path="url(#clip0_438_4087)">
<path d="M63.5171 36.3915H52.959V55.5276H70.2577V46.9145L68.2402 39.9418C67.632 37.8391 65.7061 36.3915 63.5171 36.3915Z" fill="#FF7058"/>
<path d="M67.7314 46.8254L65.9334 40.61C65.6234 39.5416 64.6296 38.7938 63.5164 38.7938H55.3613V46.8254H67.7314Z" fill="#84DBFF"/>
<path d="M67.7338 46.8224H55.3574V38.7909L67.7338 46.8224Z" fill="#CDD6E0"/>
<path d="M67.7314 46.8254L65.9334 40.61C65.6234 39.5416 64.6296 38.7938 63.5164 38.7938H55.3613L67.7314 46.8254Z" fill="#F2F2F2"/>
<path d="M23.129 26.7841H49.763C51.5269 26.7841 52.9585 28.2146 52.9585 29.9796V55.5261H19.9335V29.9796C19.9335 28.2147 21.364 26.7841 23.129 26.7841Z" fill="#FFD15C"/>
<path d="M41.5782 26.7899V35.2336L40.3425 33.998L39.0473 35.2933L37.7531 33.998L36.4589 35.2933L35.1625 33.998L33.8513 35.2933L32.5581 33.998L31.3076 35.2486V26.7899H41.5782Z" fill="#F2F2F2"/>
<path d="M71.0664 55.5248V59.1358H19.9374V55.5248H25.274C26.5202 53.2879 28.9169 51.7753 31.6651 51.7753C34.4026 51.7753 36.7993 53.2879 38.0562 55.5248H55.2271C56.4734 53.2879 58.8584 51.7753 61.6065 51.7753C64.3547 51.7753 66.7407 53.2879 67.9977 55.5248H71.0664Z" fill="#334A5E"/>
<path d="M66.7104 59.1139C66.7104 61.9324 64.4256 64.2173 61.6071 64.2173C58.7886 64.2173 56.5059 61.9324 56.5059 59.1139C56.5059 56.2954 58.7896 54.0106 61.6071 54.0106C64.4267 54.0106 66.7104 56.2954 66.7104 59.1139Z" fill="#40596B"/>
<path d="M63.6584 59.1135C63.6584 60.2459 62.7402 61.163 61.6089 61.163C60.4766 61.163 59.5574 60.2459 59.5574 59.1135C59.5574 57.9812 60.4756 57.0641 61.6089 57.0641C62.7402 57.0631 63.6584 57.9813 63.6584 59.1135Z" fill="#ACB3BA"/>
<path d="M36.7651 59.1139C36.7651 61.9324 34.4792 64.2173 31.6618 64.2173C28.8433 64.2173 26.5585 61.9324 26.5585 59.1139C26.5585 56.2954 28.8433 54.0106 31.6618 54.0106C34.4792 54.0106 36.7651 56.2954 36.7651 59.1139Z" fill="#40596B"/>
<path d="M33.7112 59.1138C33.7112 60.2461 32.7941 61.1632 31.6618 61.1632C30.5295 61.1632 29.6113 60.2461 29.6113 59.1138C29.6113 57.9815 30.5296 57.0643 31.6618 57.0643C32.794 57.0643 33.7112 57.9816 33.7112 59.1138Z" fill="#ACB3BA"/>
</g>
<defs>
<clipPath id="clip0_438_4087">
<rect width="51.1333" height="51.1333" fill="white" transform="translate(19.9335 19.9335)"/>
</clipPath>
</defs>
</svg>
