<svg width="20" height="20" viewBox="0 0 20 20" fill="none" xmlns="http://www.w3.org/2000/svg">
<path d="M13.4333 1.60751L4.3575 6.25418L0.75 4.47918L9.66583 0.0766772C9.86583 -0.0249894 10.1058 -0.0249894 10.3158 0.0766772L13.4333 1.60751Z" fill="#48267F"/>
<path d="M19.2402 4.47915L10.0052 9.05415L6.54687 7.34998L6.04688 7.09582L15.1327 2.44998L15.6327 2.70331L19.2402 4.47915Z" fill="#48267F"/>
<path d="M9.265 10.3725L9.255 20L0.41 15.3842C0.16 15.2525 0 14.9883 0 14.7042V5.79749L3.74833 7.64415V10.8908C3.74833 11.3067 4.08833 11.6517 4.49833 11.6517C4.90833 11.6517 5.24833 11.3067 5.24833 10.8908V8.39499L5.74833 8.63832L9.265 10.3725Z" fill="#48267F"/>
<path d="M19.9909 5.8075L10.7659 10.3625L10.7559 19.99L20.0009 15.1625L19.9909 5.8075Z" fill="#48267F"/>
</svg>
